<svg xmlns="http://www.w3.org/2000/svg" xmlns:xlink="http://www.w3.org/1999/xlink" width="500" zoomAndPan="magnify" viewBox="0 0 375 374.999991" height="500" preserveAspectRatio="xMidYMid meet" version="1.0"><defs><g/><clipPath id="8b86384b86"><path d="M 109.460938 93.992188 L 265.460938 93.992188 L 265.460938 313.730469 L 109.460938 313.730469 Z M 109.460938 93.992188 " clip-rule="nonzero"/></clipPath></defs><g fill="#ffffff" fill-opacity="1"><g transform="translate(71.91773, 122.839692)"><g><path d="M -5.796875 -28.3125 C -4.535156 -27.625 -3.710938 -26.601562 -3.328125 -25.25 C -2.941406 -23.894531 -3.046875 -22.3125 -3.640625 -20.5 L -3.578125 -20.46875 C -2.273438 -22.164062 -0.835938 -23.285156 0.734375 -23.828125 C 2.304688 -24.378906 3.804688 -24.265625 5.234375 -23.484375 C 6.460938 -22.816406 7.316406 -21.875 7.796875 -20.65625 C 8.285156 -19.445312 8.425781 -18.113281 8.21875 -16.65625 C 8.007812 -15.207031 7.519531 -13.78125 6.75 -12.375 L 0.265625 -0.484375 L -0.296875 -0.796875 C 0.128906 -1.566406 0.390625 -2.179688 0.484375 -2.640625 C 0.578125 -3.109375 0.488281 -3.546875 0.21875 -3.953125 C -0.0507812 -4.359375 -0.59375 -4.785156 -1.40625 -5.234375 L -16.484375 -13.46875 C -17.242188 -13.875 -17.863281 -14.09375 -18.34375 -14.125 C -18.832031 -14.164062 -19.25 -14.023438 -19.59375 -13.703125 C -19.945312 -13.390625 -20.332031 -12.878906 -20.75 -12.171875 L -21.328125 -12.5 L -15.171875 -23.78125 C -14.554688 -24.90625 -13.765625 -25.941406 -12.796875 -26.890625 C -11.835938 -27.847656 -10.753906 -28.5 -9.546875 -28.84375 C -8.335938 -29.195312 -7.085938 -29.019531 -5.796875 -28.3125 Z M -6.734375 -15.8125 C -5.785156 -17.539062 -5.550781 -19 -6.03125 -20.1875 C -6.519531 -21.375 -7.34375 -22.28125 -8.5 -22.90625 C -9.570312 -23.5 -10.734375 -23.722656 -11.984375 -23.578125 C -13.234375 -23.441406 -14.265625 -22.640625 -15.078125 -21.171875 L -15.875 -19.6875 L -7.1875 -14.953125 Z M 4.515625 -10.921875 C 5.234375 -12.234375 5.398438 -13.507812 5.015625 -14.75 C 4.640625 -16 3.765625 -16.992188 2.390625 -17.734375 C 0.960938 -18.515625 -0.472656 -18.726562 -1.921875 -18.375 C -3.378906 -18.03125 -4.625 -16.910156 -5.65625 -15.015625 L -6.03125 -14.3125 L 1.421875 -10.25 C 2.253906 -9.789062 2.890625 -9.628906 3.328125 -9.765625 C 3.773438 -9.898438 4.171875 -10.285156 4.515625 -10.921875 Z M 4.515625 -10.921875 "/></g></g></g><g fill="#ffffff" fill-opacity="1"><g transform="translate(85.142262, 100.130557)"><g><path d="M -16.96875 -19.34375 C -16.5 -19.957031 -15.882812 -20.316406 -15.125 -20.421875 C -14.375 -20.535156 -13.691406 -20.359375 -13.078125 -19.890625 C -12.460938 -19.421875 -12.101562 -18.800781 -12 -18.03125 C -11.894531 -17.269531 -12.078125 -16.582031 -12.546875 -15.96875 C -13.003906 -15.363281 -13.617188 -15.007812 -14.390625 -14.90625 C -15.160156 -14.800781 -15.851562 -14.984375 -16.46875 -15.453125 C -17.082031 -15.921875 -17.429688 -16.535156 -17.515625 -17.296875 C -17.609375 -18.054688 -17.425781 -18.738281 -16.96875 -19.34375 Z M 2.34375 -7.5625 C 3.425781 -6.738281 4.34375 -6.789062 5.09375 -7.71875 L 5.609375 -7.328125 L 0.265625 -0.34375 L -0.25 -0.734375 C 0.195312 -1.328125 0.382812 -1.851562 0.3125 -2.3125 C 0.25 -2.769531 -0.113281 -3.253906 -0.78125 -3.765625 L -9.4375 -10.390625 C -10.0625 -10.867188 -10.609375 -11.085938 -11.078125 -11.046875 C -11.546875 -11.003906 -12.007812 -10.679688 -12.46875 -10.078125 L -12.984375 -10.484375 L -8.734375 -16.046875 Z M 2.34375 -7.5625 "/></g></g></g><g fill="#ffffff" fill-opacity="1"><g transform="translate(92.497868, 90.341397)"><g><path d="M -3.8125 -20.359375 C -2.800781 -21.378906 -1.6875 -21.8125 -0.46875 -21.65625 C 0.75 -21.507812 1.859375 -20.9375 2.859375 -19.9375 L 8.9375 -13.875 C 9.4375 -13.382812 9.820312 -13.046875 10.09375 -12.859375 C 10.375 -12.671875 10.628906 -12.570312 10.859375 -12.5625 C 11.085938 -12.550781 11.398438 -12.613281 11.796875 -12.75 L 12.25 -12.296875 L 6.84375 -6.875 L 6.390625 -7.328125 C 7.015625 -8.117188 6.828125 -9.015625 5.828125 -10.015625 L -0.78125 -16.625 C -1.957031 -17.789062 -2.914062 -18.003906 -3.65625 -17.265625 C -4.320312 -16.597656 -4.484375 -15.46875 -4.140625 -13.875 L 2.9375 -6.828125 C 3.789062 -5.972656 4.640625 -5.832031 5.484375 -6.40625 L 5.9375 -5.953125 L 0.4375 -0.4375 L -0.015625 -0.890625 C 0.210938 -1.265625 0.296875 -1.65625 0.234375 -2.0625 C 0.171875 -2.46875 -0.125 -2.929688 -0.65625 -3.453125 L -8.421875 -11.203125 C -8.753906 -11.535156 -9.144531 -11.78125 -9.59375 -11.9375 C -10.050781 -12.09375 -10.492188 -12.03125 -10.921875 -11.75 L -11.375 -12.21875 L -6.9375 -16.671875 L -5.359375 -15.09375 C -5.441406 -16.257812 -5.363281 -17.269531 -5.125 -18.125 C -4.894531 -18.976562 -4.457031 -19.722656 -3.8125 -20.359375 Z M -3.8125 -20.359375 "/></g></g></g><g fill="#ffffff" fill-opacity="1"><g transform="translate(107.020801, 76.150669)"><g><path d="M -3.390625 -18.703125 C -2.210938 -19.566406 -1.003906 -19.992188 0.234375 -19.984375 C 1.484375 -19.972656 2.65625 -19.644531 3.75 -19 C 4.84375 -18.363281 5.769531 -17.550781 6.53125 -16.5625 L 6.890625 -16.078125 L -0.734375 -10.484375 C 0.566406 -8.960938 1.9375 -7.972656 3.375 -7.515625 C 4.8125 -7.066406 6.070312 -7.238281 7.15625 -8.03125 C 7.851562 -8.539062 8.3125 -9.160156 8.53125 -9.890625 C 8.75 -10.628906 8.800781 -11.507812 8.6875 -12.53125 L 9.4375 -12.59375 C 9.800781 -10.71875 9.773438 -9.113281 9.359375 -7.78125 C 8.941406 -6.457031 8.113281 -5.335938 6.875 -4.421875 C 5.632812 -3.515625 4.351562 -3.039062 3.03125 -3 C 1.707031 -2.96875 0.429688 -3.300781 -0.796875 -4 C -2.035156 -4.707031 -3.128906 -5.707031 -4.078125 -7 C -5.035156 -8.300781 -5.648438 -9.703125 -5.921875 -11.203125 C -6.191406 -12.710938 -6.109375 -14.140625 -5.671875 -15.484375 C -5.234375 -16.835938 -4.472656 -17.910156 -3.390625 -18.703125 Z M 2.09375 -15.15625 C 1.09375 -16.519531 0.203125 -17.421875 -0.578125 -17.859375 C -1.359375 -18.304688 -2.078125 -18.289062 -2.734375 -17.8125 C -3.429688 -17.300781 -3.65625 -16.472656 -3.40625 -15.328125 C -3.164062 -14.179688 -2.628906 -13.046875 -1.796875 -11.921875 L -1.4375 -11.4375 L 2.640625 -14.421875 Z M 2.09375 -15.15625 "/></g></g></g><g fill="#ffffff" fill-opacity="1"><g transform="translate(121.947673, 65.607301)"><g><path d="M 5.40625 -5.78125 C 5.695312 -5.269531 6.035156 -4.957031 6.421875 -4.84375 C 6.816406 -4.726562 7.289062 -4.828125 7.84375 -5.140625 L 8.15625 -4.578125 L 0.375 -0.21875 L 0.0625 -0.78125 C 0.707031 -1.132812 1.109375 -1.539062 1.265625 -2 C 1.421875 -2.46875 1.335938 -2.992188 1.015625 -3.578125 L -8.390625 -20.34375 C -8.796875 -21.050781 -9.21875 -21.460938 -9.65625 -21.578125 C -10.09375 -21.691406 -10.671875 -21.5625 -11.390625 -21.1875 L -11.703125 -21.765625 L -5.5 -25.234375 Z M 5.40625 -5.78125 "/></g></g></g><g fill="#ffffff" fill-opacity="1"><g transform="translate(132.574569, 59.523671)"><g><path d="M 2.125 -19.25 C 4.039062 -20.007812 5.597656 -20.175781 6.796875 -19.75 C 8.003906 -19.332031 8.847656 -18.523438 9.328125 -17.328125 L 12.625 -9.078125 C 13.113281 -7.859375 13.671875 -7.375 14.296875 -7.625 C 14.472656 -7.695312 14.601562 -7.800781 14.6875 -7.9375 C 14.78125 -8.082031 14.851562 -8.316406 14.90625 -8.640625 L 15.328125 -8.453125 C 15.316406 -7.578125 15.066406 -6.78125 14.578125 -6.0625 C 14.085938 -5.34375 13.429688 -4.820312 12.609375 -4.5 C 11.765625 -4.164062 10.992188 -4.101562 10.296875 -4.3125 C 9.609375 -4.519531 9.050781 -5.019531 8.625 -5.8125 C 8.519531 -5.675781 8.382812 -5.441406 8.21875 -5.109375 C 7.695312 -4.140625 7.171875 -3.34375 6.640625 -2.71875 C 6.117188 -2.101562 5.421875 -1.625 4.546875 -1.28125 C 3.691406 -0.9375 2.84375 -0.957031 2 -1.34375 C 1.164062 -1.726562 0.570312 -2.363281 0.21875 -3.25 C -0.238281 -4.40625 -0.148438 -5.640625 0.484375 -6.953125 C 1.128906 -8.273438 1.941406 -9.457031 2.921875 -10.5 L 5.578125 -13.421875 L 4.359375 -16.453125 C 4.140625 -17.015625 3.78125 -17.421875 3.28125 -17.671875 C 2.789062 -17.921875 2.175781 -17.898438 1.4375 -17.609375 C 0.789062 -17.347656 0.304688 -17 -0.015625 -16.5625 C -0.347656 -16.125 -0.441406 -15.710938 -0.296875 -15.328125 C -0.242188 -15.191406 -0.148438 -15.070312 -0.015625 -14.96875 C 0.117188 -14.875 0.265625 -14.78125 0.421875 -14.6875 C 0.734375 -14.53125 0.988281 -14.363281 1.1875 -14.1875 C 1.382812 -14.007812 1.539062 -13.773438 1.65625 -13.484375 C 1.875 -12.941406 1.847656 -12.421875 1.578125 -11.921875 C 1.304688 -11.429688 0.847656 -11.054688 0.203125 -10.796875 C -0.503906 -10.515625 -1.15625 -10.476562 -1.75 -10.6875 C -2.34375 -10.894531 -2.765625 -11.304688 -3.015625 -11.921875 C -3.335938 -12.722656 -3.320312 -13.597656 -2.96875 -14.546875 C -2.613281 -15.503906 -1.984375 -16.398438 -1.078125 -17.234375 C -0.179688 -18.078125 0.882812 -18.75 2.125 -19.25 Z M 4.171875 -6.515625 C 4.390625 -5.972656 4.710938 -5.59375 5.140625 -5.375 C 5.578125 -5.164062 6.023438 -5.15625 6.484375 -5.34375 C 6.867188 -5.488281 7.179688 -5.6875 7.421875 -5.9375 C 7.671875 -6.195312 7.914062 -6.546875 8.15625 -6.984375 L 6.046875 -12.25 C 4.140625 -10.070312 3.515625 -8.160156 4.171875 -6.515625 Z M 4.171875 -6.515625 "/></g></g></g><g fill="#ffffff" fill-opacity="1"><g transform="translate(151.451152, 52.172305)"><g><path d="M 7.734375 -19.21875 C 9.140625 -19.53125 10.3125 -19.289062 11.25 -18.5 C 12.195312 -17.71875 12.828125 -16.640625 13.140625 -15.265625 L 15 -6.875 C 15.15625 -6.1875 15.296875 -5.691406 15.421875 -5.390625 C 15.554688 -5.097656 15.71875 -4.882812 15.90625 -4.75 C 16.09375 -4.625 16.394531 -4.503906 16.8125 -4.390625 L 16.953125 -3.765625 L 9.46875 -2.109375 L 9.328125 -2.734375 C 10.296875 -3.078125 10.625 -3.941406 10.3125 -5.328125 L 8.28125 -14.4375 C 7.925781 -16.050781 7.234375 -16.742188 6.203125 -16.515625 C 5.285156 -16.304688 4.539062 -15.445312 3.96875 -13.9375 L 6.140625 -4.171875 C 6.398438 -3.003906 7.039062 -2.429688 8.0625 -2.453125 L 8.203125 -1.828125 L 0.59375 -0.125 L 0.453125 -0.75 C 0.859375 -0.957031 1.140625 -1.25 1.296875 -1.625 C 1.460938 -2 1.46875 -2.550781 1.3125 -3.28125 L -1.078125 -13.984375 C -1.179688 -14.453125 -1.378906 -14.867188 -1.671875 -15.234375 C -1.960938 -15.597656 -2.363281 -15.78125 -2.875 -15.78125 L -3.03125 -16.421875 L 3.109375 -17.796875 L 3.59375 -15.609375 C 4.15625 -16.640625 4.765625 -17.445312 5.421875 -18.03125 C 6.078125 -18.625 6.847656 -19.019531 7.734375 -19.21875 Z M 7.734375 -19.21875 "/></g></g></g><g fill="#ffffff" fill-opacity="1"><g transform="translate(171.265683, 47.959606)"><g><path d="M 7.390625 -17.515625 C 8.035156 -17.554688 8.609375 -17.535156 9.109375 -17.453125 C 9.609375 -17.367188 10.125 -17.238281 10.65625 -17.0625 L 16.21875 -17.375 L 16.328125 -15.46875 L 13.140625 -15.296875 C 13.691406 -14.878906 14.128906 -14.382812 14.453125 -13.8125 C 14.785156 -13.238281 14.976562 -12.546875 15.03125 -11.734375 C 15.082031 -10.679688 14.8125 -9.691406 14.21875 -8.765625 C 13.632812 -7.835938 12.820312 -7.09375 11.78125 -6.53125 C 10.738281 -5.96875 9.609375 -5.65625 8.390625 -5.59375 C 8.078125 -5.570312 7.765625 -5.566406 7.453125 -5.578125 C 7.140625 -5.597656 6.890625 -5.601562 6.703125 -5.59375 C 6.148438 -5.5625 5.6875 -5.363281 5.3125 -5 C 4.9375 -4.632812 4.757812 -4.222656 4.78125 -3.765625 C 4.8125 -3.210938 5.039062 -2.847656 5.46875 -2.671875 C 5.90625 -2.492188 6.75 -2.4375 8 -2.5 C 8.457031 -2.53125 8.96875 -2.585938 9.53125 -2.671875 L 10.609375 -2.765625 C 12.597656 -2.878906 14.1875 -2.617188 15.375 -1.984375 C 16.5625 -1.359375 17.195312 -0.265625 17.28125 1.296875 C 17.363281 2.804688 16.769531 4.109375 15.5 5.203125 C 14.238281 6.304688 12.160156 6.941406 9.265625 7.109375 C 6.816406 7.242188 4.898438 7.070312 3.515625 6.59375 C 2.140625 6.125 1.421875 5.351562 1.359375 4.28125 C 1.316406 3.664062 1.5 3.148438 1.90625 2.734375 C 2.320312 2.328125 3.019531 1.953125 4 1.609375 C 3.25 1.273438 2.675781 0.863281 2.28125 0.375 C 1.894531 -0.101562 1.679688 -0.691406 1.640625 -1.390625 C 1.585938 -2.328125 1.835938 -3.140625 2.390625 -3.828125 C 2.941406 -4.523438 3.90625 -5.226562 5.28125 -5.9375 C 3.914062 -6.34375 2.804688 -7.035156 1.953125 -8.015625 C 1.109375 -9.003906 0.648438 -10.113281 0.578125 -11.34375 C 0.515625 -12.394531 0.769531 -13.378906 1.34375 -14.296875 C 1.925781 -15.210938 2.742188 -15.957031 3.796875 -16.53125 C 4.847656 -17.113281 6.046875 -17.441406 7.390625 -17.515625 Z M 5.5625 -11.15625 C 5.726562 -8.082031 6.601562 -6.59375 8.1875 -6.6875 C 9 -6.726562 9.582031 -7.15625 9.9375 -7.96875 C 10.289062 -8.789062 10.421875 -9.992188 10.328125 -11.578125 C 10.222656 -13.421875 9.9375 -14.695312 9.46875 -15.40625 C 9.007812 -16.125 8.398438 -16.460938 7.640625 -16.421875 C 6.054688 -16.328125 5.363281 -14.570312 5.5625 -11.15625 Z M 4.3125 3.75 C 4.363281 4.53125 4.804688 5.117188 5.640625 5.515625 C 6.484375 5.910156 7.765625 6.0625 9.484375 5.96875 C 11.097656 5.875 12.359375 5.585938 13.265625 5.109375 C 14.171875 4.628906 14.601562 4 14.5625 3.21875 C 14.539062 2.832031 14.414062 2.519531 14.1875 2.28125 C 13.957031 2.039062 13.488281 1.863281 12.78125 1.75 C 12.070312 1.632812 11.046875 1.613281 9.703125 1.6875 L 6.796875 1.859375 C 6.128906 1.890625 5.539062 2.054688 5.03125 2.359375 C 4.519531 2.671875 4.28125 3.132812 4.3125 3.75 Z M 4.3125 3.75 "/></g></g></g><g fill="#ffffff" fill-opacity="1"><g transform="translate(191.715422, 47.246757)"><g/></g></g><g fill="#ffffff" fill-opacity="1"><g transform="translate(202.961916, 46.961912)"><g><path d="M 19.28125 -2.78125 L 31.078125 -17.140625 L 40.34375 -14.609375 L 40.171875 -13.984375 C 39.390625 -14.179688 38.765625 -14.28125 38.296875 -14.28125 C 37.835938 -14.28125 37.441406 -14.113281 37.109375 -13.78125 C 36.785156 -13.445312 36.519531 -12.882812 36.3125 -12.09375 L 31.734375 4.71875 C 31.484375 5.625 31.410156 6.316406 31.515625 6.796875 C 31.617188 7.285156 31.863281 7.644531 32.25 7.875 C 32.632812 8.113281 33.226562 8.351562 34.03125 8.59375 L 33.859375 9.21875 L 21.78125 5.9375 L 21.953125 5.3125 C 22.867188 5.53125 23.570312 5.632812 24.0625 5.625 C 24.5625 5.625 24.976562 5.445312 25.3125 5.09375 C 25.644531 4.738281 25.929688 4.125 26.171875 3.25 L 31.1875 -15.171875 L 31.125 -15.1875 L 15.25 4.15625 L 14.78125 4.015625 L 10.90625 -20.515625 L 10.84375 -20.53125 L 5.828125 -2.140625 C 5.566406 -1.160156 5.648438 -0.367188 6.078125 0.234375 C 6.515625 0.847656 7.300781 1.3125 8.4375 1.625 L 8.265625 2.25 L 0.53125 0.140625 L 0.703125 -0.484375 C 1.734375 -0.203125 2.585938 -0.265625 3.265625 -0.671875 C 3.953125 -1.085938 4.410156 -1.722656 4.640625 -2.578125 L 9.171875 -19.1875 C 9.390625 -20.019531 9.460938 -20.675781 9.390625 -21.15625 C 9.316406 -21.632812 9.078125 -22.007812 8.671875 -22.28125 C 8.273438 -22.550781 7.664062 -22.8125 6.84375 -23.0625 L 7.015625 -23.6875 L 16.328125 -21.140625 Z M 19.28125 -2.78125 "/></g></g></g><g fill="#ffffff" fill-opacity="1"><g transform="translate(238.692602, 57.94792)"><g><path d="M 15.96875 -10.796875 C 17.25 -10.109375 18.253906 -9.171875 18.984375 -7.984375 C 19.722656 -6.804688 20.097656 -5.457031 20.109375 -3.9375 C 20.117188 -2.414062 19.6875 -0.84375 18.8125 0.78125 C 17.875 2.507812 16.734375 3.753906 15.390625 4.515625 C 14.054688 5.285156 12.710938 5.65625 11.359375 5.625 C 10.003906 5.601562 8.800781 5.304688 7.75 4.734375 C 6.582031 4.109375 5.613281 3.203125 4.84375 2.015625 C 4.082031 0.835938 3.675781 -0.519531 3.625 -2.0625 C 3.570312 -3.601562 3.988281 -5.195312 4.875 -6.84375 C 5.675781 -8.320312 6.6875 -9.476562 7.90625 -10.3125 C 9.125 -11.15625 10.4375 -11.625 11.84375 -11.71875 C 13.257812 -11.820312 14.632812 -11.515625 15.96875 -10.796875 Z M 9.765625 -5.03125 C 8.742188 -3.125 8.019531 -1.625 7.59375 -0.53125 C 7.175781 0.550781 7.015625 1.421875 7.109375 2.078125 C 7.210938 2.734375 7.597656 3.242188 8.265625 3.609375 C 8.878906 3.941406 9.46875 4.015625 10.03125 3.828125 C 10.59375 3.640625 11.175781 3.15625 11.78125 2.375 C 12.394531 1.59375 13.097656 0.460938 13.890625 -1.015625 C 14.921875 -2.910156 15.648438 -4.382812 16.078125 -5.4375 C 16.515625 -6.5 16.6875 -7.375 16.59375 -8.0625 C 16.5 -8.75 16.085938 -9.289062 15.359375 -9.6875 C 14.421875 -10.1875 13.519531 -10.023438 12.65625 -9.203125 C 11.789062 -8.378906 10.828125 -6.988281 9.765625 -5.03125 Z M 9.765625 -5.03125 "/></g></g></g><g fill="#ffffff" fill-opacity="1"><g transform="translate(256.446427, 67.889177)"><g><path d="M 19.140625 -7.03125 C 19.597656 -6.675781 19.84375 -6.210938 19.875 -5.640625 C 19.90625 -5.078125 19.707031 -4.515625 19.28125 -3.953125 C 18.84375 -3.359375 18.335938 -2.984375 17.765625 -2.828125 C 17.203125 -2.679688 16.671875 -2.796875 16.171875 -3.171875 C 15.941406 -3.347656 15.773438 -3.546875 15.671875 -3.765625 C 15.578125 -3.984375 15.472656 -4.273438 15.359375 -4.640625 C 15.179688 -5.171875 15.003906 -5.5 14.828125 -5.625 C 14.523438 -5.851562 14.078125 -5.796875 13.484375 -5.453125 C 12.898438 -5.109375 12.375 -4.617188 11.90625 -3.984375 L 7.4375 2 C 6.957031 2.632812 6.742188 3.179688 6.796875 3.640625 C 6.847656 4.097656 7.203125 4.566406 7.859375 5.046875 L 7.46875 5.5625 L 0.3125 0.234375 L 0.703125 -0.28125 C 1.691406 0.445312 2.613281 0.234375 3.46875 -0.921875 L 10.09375 -9.796875 C 10.9375 -10.929688 10.867188 -11.875 9.890625 -12.625 L 10.28125 -13.140625 L 15.703125 -9.09375 L 13.921875 -6.703125 L 13.96875 -6.671875 C 16.226562 -7.796875 17.953125 -7.914062 19.140625 -7.03125 Z M 19.140625 -7.03125 "/></g></g></g><g fill="#ffffff" fill-opacity="1"><g transform="translate(269.438753, 77.702344)"><g><path d="M 17.921875 -6.296875 C 18.960938 -5.273438 19.578125 -4.148438 19.765625 -2.921875 C 19.953125 -1.691406 19.816406 -0.488281 19.359375 0.6875 C 18.898438 1.863281 18.238281 2.910156 17.375 3.828125 L 16.953125 4.265625 L 10.234375 -2.375 C 8.941406 -0.851562 8.179688 0.648438 7.953125 2.140625 C 7.734375 3.640625 8.101562 4.859375 9.0625 5.796875 C 9.675781 6.410156 10.363281 6.765625 11.125 6.859375 C 11.882812 6.960938 12.757812 6.875 13.75 6.59375 L 13.921875 7.328125 C 12.140625 7.984375 10.554688 8.207031 9.171875 8 C 7.796875 7.800781 6.5625 7.164062 5.46875 6.09375 C 4.375 5.007812 3.703125 3.816406 3.453125 2.515625 C 3.203125 1.222656 3.320312 -0.0820312 3.8125 -1.40625 C 4.3125 -2.738281 5.128906 -3.976562 6.265625 -5.125 C 7.390625 -6.269531 8.675781 -7.097656 10.125 -7.609375 C 11.570312 -8.117188 12.992188 -8.265625 14.390625 -8.046875 C 15.785156 -7.828125 16.960938 -7.242188 17.921875 -6.296875 Z M 15.296875 -0.3125 C 16.484375 -1.519531 17.234375 -2.546875 17.546875 -3.390625 C 17.867188 -4.234375 17.738281 -4.941406 17.15625 -5.515625 C 16.539062 -6.117188 15.6875 -6.207031 14.59375 -5.78125 C 13.507812 -5.363281 12.476562 -4.65625 11.5 -3.65625 L 11.0625 -3.234375 L 14.65625 0.328125 Z M 15.296875 -0.3125 "/></g></g></g><g fill="#ffffff" fill-opacity="1"><g transform="translate(282.25143, 90.470973)"><g><path d="M 20.6875 -0.78125 C 21.539062 0.375 21.804688 1.539062 21.484375 2.71875 C 21.160156 3.90625 20.429688 4.921875 19.296875 5.765625 L 12.390625 10.890625 C 11.835938 11.304688 11.445312 11.632812 11.21875 11.875 C 11 12.125 10.867188 12.359375 10.828125 12.578125 C 10.785156 12.804688 10.796875 13.132812 10.859375 13.5625 L 10.34375 13.9375 L 5.78125 7.796875 L 6.296875 7.421875 C 7.003906 8.140625 7.925781 8.078125 9.0625 7.234375 L 16.5625 1.671875 C 17.882812 0.679688 18.234375 -0.234375 17.609375 -1.078125 C 17.046875 -1.828125 15.957031 -2.148438 14.34375 -2.046875 L 6.3125 3.921875 C 5.351562 4.628906 5.09375 5.445312 5.53125 6.375 L 5.015625 6.75 L 0.359375 0.484375 L 0.875 0.109375 C 1.21875 0.398438 1.59375 0.539062 2 0.53125 C 2.414062 0.519531 2.921875 0.296875 3.515625 -0.140625 L 12.328125 -6.671875 C 12.710938 -6.960938 13.007812 -7.316406 13.21875 -7.734375 C 13.4375 -8.148438 13.441406 -8.597656 13.234375 -9.078125 L 13.75 -9.46875 L 17.515625 -4.40625 L 15.734375 -3.078125 C 16.890625 -2.992188 17.867188 -2.769531 18.671875 -2.40625 C 19.472656 -2.050781 20.144531 -1.507812 20.6875 -0.78125 Z M 20.6875 -0.78125 "/></g></g></g><g fill="#ffffff" fill-opacity="1"><g transform="translate(294.181634, 106.843461)"><g><path d="M 19.359375 0.265625 C 20.304688 2.097656 20.625 3.628906 20.3125 4.859375 C 20.007812 6.097656 19.285156 7.015625 18.140625 7.609375 L 10.234375 11.6875 C 9.066406 12.289062 8.640625 12.894531 8.953125 13.5 C 9.046875 13.664062 9.171875 13.785156 9.328125 13.859375 C 9.484375 13.929688 9.71875 13.976562 10.03125 14 L 9.890625 14.4375 C 9.003906 14.507812 8.1875 14.335938 7.4375 13.921875 C 6.6875 13.503906 6.109375 12.898438 5.703125 12.109375 C 5.285156 11.304688 5.144531 10.546875 5.28125 9.828125 C 5.425781 9.117188 5.867188 8.519531 6.609375 8.03125 C 6.453125 7.945312 6.207031 7.832031 5.875 7.6875 C 4.863281 7.257812 4.023438 6.8125 3.359375 6.34375 C 2.691406 5.882812 2.144531 5.238281 1.71875 4.40625 C 1.289062 3.582031 1.226562 2.734375 1.53125 1.859375 C 1.832031 0.984375 2.410156 0.328125 3.265625 -0.109375 C 4.367188 -0.671875 5.609375 -0.691406 6.984375 -0.171875 C 8.359375 0.335938 9.609375 1.023438 10.734375 1.890625 L 13.90625 4.265625 L 16.796875 2.765625 C 17.335938 2.484375 17.707031 2.082031 17.90625 1.5625 C 18.101562 1.039062 18.019531 0.429688 17.65625 -0.265625 C 17.34375 -0.890625 16.945312 -1.34375 16.46875 -1.625 C 16 -1.90625 15.585938 -1.953125 15.234375 -1.765625 C 15.097656 -1.703125 14.988281 -1.597656 14.90625 -1.453125 C 14.820312 -1.316406 14.742188 -1.160156 14.671875 -0.984375 C 14.535156 -0.671875 14.390625 -0.40625 14.234375 -0.1875 C 14.078125 0.0195312 13.859375 0.195312 13.578125 0.34375 C 13.054688 0.613281 12.535156 0.640625 12.015625 0.421875 C 11.503906 0.203125 11.085938 -0.210938 10.765625 -0.828125 C 10.421875 -1.503906 10.320312 -2.148438 10.46875 -2.765625 C 10.613281 -3.390625 10.984375 -3.851562 11.578125 -4.15625 C 12.347656 -4.550781 13.222656 -4.617188 14.203125 -4.359375 C 15.179688 -4.097656 16.128906 -3.554688 17.046875 -2.734375 C 17.972656 -1.921875 18.742188 -0.921875 19.359375 0.265625 Z M 6.890625 3.53125 C 6.367188 3.789062 6.019531 4.144531 5.84375 4.59375 C 5.675781 5.050781 5.710938 5.503906 5.953125 5.953125 C 6.128906 6.304688 6.359375 6.59375 6.640625 6.8125 C 6.921875 7.03125 7.285156 7.242188 7.734375 7.453125 L 12.78125 4.84375 C 10.425781 3.15625 8.460938 2.71875 6.890625 3.53125 Z M 6.890625 3.53125 "/></g></g></g><g clip-path="url(#8b86384b86)"><path fill="#ff0000" d="M 119.683594 160.550781 C 134.601562 159.78125 147.460938 164.394531 158.378906 174.554688 C 160.472656 172.359375 162.28125 170.023438 163.78125 167.417969 C 150.359375 160.496094 141.523438 149.875 137.242188 135.464844 C 131.753906 139.691406 121.460938 154.367188 119.683594 160.550781 Z M 115.84375 185.0625 C 122.757812 187.5625 131.605469 188.0625 139.667969 185.800781 C 144.863281 184.34375 149.597656 182.007812 153.84375 178.648438 C 153.683594 178.441406 153.640625 178.363281 153.574219 178.304688 C 144.132812 169.714844 133.023438 165.808594 120.292969 166.535156 C 117.328125 166.703125 117.199219 166.773438 116.859375 169.730469 C 116.402344 173.765625 116.15625 177.828125 115.855469 181.882812 C 115.78125 182.910156 115.84375 183.949219 115.84375 185.0625 Z M 219.523438 178.070312 C 221.054688 178.980469 222.453125 179.90625 223.929688 180.6875 C 231.539062 184.71875 239.636719 186.140625 248.167969 185.113281 C 251.613281 184.699219 254.945312 183.78125 258.175781 182.507812 C 258.832031 182.25 259.09375 181.914062 259.03125 181.164062 C 258.839844 178.746094 258.878906 176.304688 258.558594 173.914062 C 258.207031 171.304688 257.554688 168.738281 257.042969 166.152344 C 256.910156 165.46875 256.582031 165.109375 255.816406 165.121094 C 255.082031 165.132812 254.351562 164.964844 253.621094 164.929688 C 243.761719 164.460938 234.683594 166.859375 226.449219 172.335938 C 223.996094 173.964844 221.71875 175.816406 219.523438 178.070312 Z M 254.082031 158.941406 C 252.601562 153.605469 240.644531 137.917969 234.78125 133.589844 C 233.078125 140.746094 229.996094 147.210938 225.503906 152.992188 C 220.984375 158.808594 215.417969 163.386719 208.847656 166.867188 C 210.605469 169.59375 212.585938 171.976562 214.890625 174.164062 C 225.753906 163.390625 238.824219 158.347656 254.082031 158.941406 Z M 205.941406 161.59375 C 206.464844 161.324219 206.894531 161.132812 207.292969 160.902344 C 219.253906 153.929688 226.691406 143.722656 229.421875 130.105469 C 229.636719 129.039062 229.378906 128.421875 228.589844 127.792969 C 226.039062 125.785156 223.554688 123.6875 220.988281 121.703125 C 218.667969 119.90625 216.265625 118.214844 213.808594 116.40625 C 207.96875 122.484375 204.3125 129.5625 202.890625 137.738281 C 201.457031 145.953125 202.472656 153.894531 205.941406 161.59375 Z M 166.527344 162.058594 C 170.167969 152.820312 170.589844 143.59375 167.660156 134.253906 C 165.671875 127.910156 160.21875 119.320312 157.511719 118.035156 C 152.425781 121.714844 147.550781 125.660156 142.871094 129.855469 C 142.402344 130.28125 142.277344 130.671875 142.417969 131.324219 C 144.023438 138.75 147.304688 145.332031 152.257812 151.082031 C 156.207031 155.664062 160.910156 159.273438 166.527344 162.058594 Z M 115.273438 254.175781 C 120.648438 255.667969 130.457031 255.503906 138.765625 252.355469 C 147.863281 248.902344 155.085938 243.113281 160.492188 235.058594 C 160.375 234.914062 160.332031 234.828125 160.265625 234.785156 C 159.980469 234.59375 159.6875 234.40625 159.390625 234.230469 C 154.054688 231.003906 148.300781 229.050781 142.078125 228.484375 C 132.699219 227.628906 124.0625 229.792969 116.113281 234.816406 C 115.320312 235.316406 115.042969 235.882812 115.058594 236.808594 C 115.148438 242.304688 115.175781 247.804688 115.226562 253.304688 C 115.226562 253.601562 115.257812 253.898438 115.273438 254.175781 Z M 259.667969 252.617188 C 259.710938 252.410156 259.757812 252.289062 259.761719 252.164062 C 259.808594 245.84375 259.839844 239.527344 259.925781 233.210938 C 259.9375 232.367188 259.464844 232.085938 258.890625 231.765625 C 253.847656 228.945312 248.472656 227.191406 242.703125 226.667969 C 232.847656 225.777344 223.847656 228.140625 215.675781 233.707031 C 215.335938 233.9375 215.023438 234.210938 214.707031 234.460938 C 224.617188 249.0625 242.871094 256.179688 259.667969 252.617188 Z M 182.597656 283.417969 C 179.09375 294.03125 172.503906 302.285156 163.253906 308.519531 C 167.285156 308.617188 171.21875 308.625 175.152344 308.613281 C 177.960938 308.605469 180.769531 308.570312 183.582031 308.546875 C 185.492188 308.546875 187.402344 308.546875 189.3125 308.546875 C 189.746094 308.574219 190.175781 308.617188 190.605469 308.617188 C 197.613281 308.621094 204.617188 308.617188 211.625 308.617188 C 213.382812 308.617188 215.140625 308.617188 216.898438 308.617188 C 205.707031 302.113281 197.933594 292.925781 194.117188 280.519531 C 195.71875 278.871094 197.324219 277.226562 198.929688 275.578125 C 199.082031 276.109375 199.238281 276.640625 199.382812 277.171875 C 202.894531 290.046875 210.800781 299.164062 222.945312 304.609375 C 225.773438 305.878906 228.738281 306.742188 231.84375 307.199219 C 230.546875 294.359375 220.609375 277.835938 202.308594 271.679688 C 202.371094 270.011719 201.730469 268.625 200.710938 267.339844 C 200.003906 266.449219 199.4375 265.453125 198.808594 264.503906 C 198.890625 264.53125 198.972656 264.566406 199.054688 264.585938 C 218.539062 268.933594 233.449219 284.183594 237.441406 303.859375 C 237.707031 305.160156 237.914062 306.472656 238.136719 307.734375 C 238.320312 307.78125 238.40625 307.820312 238.488281 307.820312 C 245.515625 307.902344 252.097656 306.203125 258.28125 302.890625 C 258.800781 302.609375 259.011719 302.253906 259.019531 301.664062 C 259.042969 299.628906 259.128906 297.597656 259.164062 295.558594 C 259.347656 283.785156 259.523438 272.003906 259.703125 260.226562 C 259.710938 259.761719 259.703125 259.296875 259.703125 258.859375 C 239.164062 261.523438 222.644531 254.710938 209.964844 238.457031 C 203.066406 245.597656 199.097656 254.023438 198.265625 263.898438 C 197.429688 263.503906 197.085938 262.820312 197.089844 261.929688 C 197.101562 256.632812 197.117188 251.339844 197.128906 246.042969 C 198.035156 244.496094 198.945312 242.953125 199.917969 241.289062 C 198.933594 241.550781 198.039062 241.785156 197.140625 242.023438 C 197.136719 239.957031 197.136719 237.894531 197.136719 235.835938 C 200.289062 234.871094 203.210938 233.421875 205.957031 231.550781 C 203.03125 225.566406 201.324219 219.324219 200.867188 212.742188 C 202.859375 212.742188 204.847656 212.742188 206.839844 212.738281 C 207.265625 217.886719 208.5 222.820312 210.738281 227.621094 C 214.214844 224.121094 216.792969 220.226562 218.488281 215.753906 C 219.09375 216.132812 219.757812 216.445312 220.296875 216.902344 C 221.167969 217.636719 222.125 217.816406 223.195312 217.644531 C 223.539062 217.589844 223.871094 217.507812 224.207031 217.441406 C 223.316406 219.503906 222.425781 221.566406 221.46875 223.777344 C 234.566406 218.90625 247.320312 219.457031 259.859375 225.453125 C 259.859375 223.488281 259.878906 221.675781 259.855469 219.859375 C 259.796875 215.054688 259.722656 210.246094 259.652344 205.441406 C 259.625 203.523438 259.597656 201.601562 259.570312 199.683594 C 259.5 195.992188 259.433594 192.300781 259.359375 188.472656 C 247.058594 192.785156 235.132812 192.3125 223.253906 187.089844 C 223.363281 187.5 223.40625 187.660156 223.449219 187.816406 C 221.835938 187.785156 220.488281 188.398438 219.269531 189.417969 C 218.890625 189.738281 218.394531 189.914062 217.953125 190.15625 C 217.058594 188.058594 215.96875 186.078125 214.511719 184.101562 C 212.449219 187.113281 210.824219 190.167969 209.605469 193.445312 C 207.503906 193.445312 205.402344 193.445312 203.300781 193.445312 C 204.875 188.347656 207.40625 183.734375 210.496094 179.386719 C 207.914062 176.875 205.125 174.886719 202 173.367188 C 202.066406 173.121094 202.101562 172.863281 202.199219 172.632812 C 202.695312 171.4375 202.5 170.375 201.621094 169.433594 C 201.214844 169 200.777344 168.585938 200.363281 168.15625 C 199.335938 167.085938 198.3125 166.011719 197.285156 164.941406 C 198.308594 164.636719 199.335938 164.332031 200.449219 164 C 196.636719 155.355469 195.441406 146.460938 196.921875 137.261719 C 198.402344 128.054688 202.398438 120.023438 208.695312 113.082031 C 208.394531 112.847656 208.175781 112.644531 207.925781 112.488281 C 203.445312 109.773438 198.980469 107.039062 194.476562 104.367188 C 192.804688 103.378906 191.035156 102.550781 189.3125 101.648438 C 186.660156 99.964844 186.660156 99.964844 183.976562 101.40625 C 183.832031 101.480469 183.710938 101.601562 183.578125 101.703125 C 183.078125 101.949219 182.550781 102.15625 182.074219 102.445312 C 176.769531 105.632812 171.46875 108.820312 166.179688 112.035156 C 165.011719 112.746094 163.898438 113.558594 162.671875 114.382812 C 168.976562 121.152344 173.046875 128.949219 174.726562 137.925781 C 176.414062 146.933594 175.480469 155.71875 172.058594 164.328125 C 173.484375 164.707031 174.773438 165.050781 176.058594 165.394531 C 175.808594 165.683594 175.578125 165.988281 175.308594 166.257812 C 174.210938 167.339844 173.074219 168.390625 172.003906 169.5 C 171.144531 170.386719 170.992188 171.445312 171.460938 172.59375 C 171.574219 172.871094 171.648438 173.160156 171.738281 173.441406 C 168.507812 175.097656 165.585938 177.164062 163.054688 179.78125 C 166.304688 184.050781 168.890625 188.507812 170.617188 193.445312 C 168.476562 193.445312 166.332031 193.441406 164.191406 193.441406 C 162.917969 190.277344 161.207031 187.367188 159.121094 184.519531 C 157.769531 186.417969 156.742188 188.328125 155.898438 190.34375 C 154.96875 189.742188 154.015625 189.175781 153.117188 188.527344 C 152.15625 187.828125 151.09375 187.742188 150.054688 188.074219 C 149.273438 188.324219 148.589844 188.878906 147.859375 189.296875 C 147.417969 189.457031 146.96875 189.601562 146.527344 189.773438 C 138.222656 193.070312 129.667969 194.070312 120.851562 192.488281 C 119.117188 192.179688 117.398438 191.777344 115.527344 191.390625 C 115.472656 194.449219 115.417969 197.460938 115.363281 200.46875 C 115.34375 202.386719 115.328125 204.304688 115.308594 206.222656 C 115.285156 206.4375 115.246094 206.648438 115.242188 206.863281 C 115.179688 213.699219 115.121094 220.539062 115.066406 227.375 C 115.0625 227.660156 115.101562 227.945312 115.128906 228.433594 C 121.027344 225.144531 127.175781 223.183594 133.753906 222.542969 C 140.335938 221.902344 146.753906 222.703125 152.992188 224.675781 C 151.902344 222.285156 150.839844 219.949219 149.777344 217.609375 C 151.570312 217.996094 153.050781 217.433594 154.316406 216.148438 C 154.574219 215.886719 154.945312 215.738281 155.265625 215.535156 C 156.503906 218.390625 157.890625 221.164062 159.769531 223.664062 C 161.03125 225.347656 162.386719 226.9375 164.070312 228.390625 C 166.3125 223.320312 167.441406 218.132812 167.722656 212.738281 C 169.710938 212.742188 171.699219 212.742188 173.6875 212.742188 C 173.394531 219.53125 171.804688 226.015625 168.972656 232.148438 C 171.082031 233.605469 174.046875 234.996094 176.558594 235.738281 C 176.535156 237.164062 176.5 238.585938 176.492188 240.011719 C 176.480469 241.476562 176.480469 242.9375 176.492188 244.398438 C 176.5 244.960938 176.582031 245.519531 176.582031 246.078125 C 176.59375 248.585938 176.597656 251.09375 176.578125 253.605469 C 176.574219 254.023438 176.457031 254.4375 176.394531 254.855469 C 174.050781 248.546875 170.347656 243.167969 165.3125 238.613281 C 159.714844 246.828125 152.507812 252.929688 143.515625 256.863281 C 134.507812 260.804688 125.09375 261.875 115.28125 260.425781 C 115.28125 261.007812 115.277344 261.390625 115.28125 261.773438 C 115.519531 275.191406 115.765625 288.605469 115.980469 302.023438 C 115.992188 302.828125 116.300781 303.265625 116.957031 303.660156 C 119.824219 305.371094 122.828125 306.78125 126.011719 307.789062 C 127.496094 308.257812 128.996094 308.660156 130.582031 308.632812 C 132.746094 308.589844 134.910156 308.621094 137.074219 308.613281 C 137.40625 308.609375 137.738281 308.558594 138.082031 308.527344 C 138.582031 304.351562 139.394531 300.328125 140.882812 296.476562 C 146.984375 280.679688 158.160156 270.304688 174.328125 265.292969 C 173.832031 266.03125 173.378906 266.796875 172.839844 267.503906 C 171.699219 268.996094 170.992188 270.570312 171.6875 272.480469 C 171.574219 272.539062 171.460938 272.609375 171.339844 272.65625 C 159.484375 277.730469 151.214844 286.269531 146.566406 298.300781 C 145.304688 301.574219 144.515625 304.96875 144.117188 308.535156 C 145.726562 308.703125 147.28125 308.730469 148.78125 308.277344 C 163.839844 303.722656 173.539062 293.902344 177.742188 278.703125 C 177.863281 278.746094 178.019531 278.75 178.097656 278.832031 C 179.605469 280.355469 181.101562 281.886719 182.597656 283.417969 Z M 265.519531 237.683594 C 265.425781 246.558594 265.410156 255.4375 265.273438 264.3125 C 265.027344 280.332031 264.714844 296.351562 264.425781 312.371094 C 264.414062 312.914062 264.359375 313.457031 264.320312 314.058594 C 263.640625 314.058594 263.125 314.058594 262.605469 314.058594 C 236.0625 314.058594 209.515625 314.058594 182.96875 314.058594 C 159.539062 314.058594 136.113281 314.058594 112.6875 314.058594 C 111.027344 314.058594 110.660156 313.722656 110.519531 312.078125 C 110.5 311.820312 110.5 311.558594 110.496094 311.296875 C 110.46875 309.394531 110.445312 307.488281 110.410156 305.585938 C 110.246094 297.058594 110.023438 288.527344 109.921875 280 C 109.730469 263.675781 109.550781 247.351562 109.476562 231.027344 C 109.398438 212.496094 109.554688 193.960938 110.523438 175.449219 C 110.816406 169.816406 111.949219 164.386719 114.019531 159.144531 C 116.910156 151.820312 121.132812 145.304688 126.085938 139.234375 C 132.523438 131.339844 139.96875 124.492188 147.933594 118.1875 C 156.234375 111.621094 164.992188 105.726562 174.152344 100.429688 C 177.710938 98.375 181.367188 96.488281 184.96875 94.503906 C 186.292969 93.777344 187.511719 93.792969 188.707031 94.761719 C 189.070312 95.0625 189.507812 95.277344 189.921875 95.507812 C 193.902344 97.699219 197.933594 99.804688 201.855469 102.097656 C 213.65625 109 224.800781 116.835938 235.023438 125.9375 C 241.933594 132.09375 248.253906 138.785156 253.507812 146.433594 C 257.457031 152.175781 260.628906 158.296875 262.601562 165.015625 C 264.027344 169.878906 264.476562 174.875 264.632812 179.902344 C 264.941406 189.984375 265.246094 200.066406 265.417969 210.15625 C 265.550781 218.292969 265.484375 226.4375 265.511719 234.578125 C 265.515625 235.203125 265.527344 237.320312 265.519531 237.683594 " fill-opacity="1" fill-rule="evenodd"/></g><path fill="#ffffff" d="M 136.75 142.628906 C 135.585938 142.183594 134.257812 142.5 133.464844 143.488281 C 132.757812 144.363281 132.117188 145.285156 131.460938 146.195312 C 129.898438 148.371094 128.335938 150.546875 126.796875 152.734375 C 126.253906 153.503906 125.992188 154.351562 126.308594 155.304688 C 126.671875 156.386719 127.425781 157.066406 128.519531 157.273438 C 129.6875 157.496094 130.648438 157.039062 131.339844 156.085938 C 133.546875 153.046875 135.753906 150.007812 137.925781 146.941406 C 138.261719 146.464844 138.40625 145.851562 138.539062 145.53125 C 138.546875 144.148438 137.78125 143.023438 136.75 142.628906 Z M 211.914062 121.730469 C 211.4375 122.84375 211.640625 124.078125 212.660156 124.910156 C 216.050781 127.660156 219.476562 130.363281 222.917969 133.054688 C 223.539062 133.539062 224.304688 133.773438 225.121094 133.558594 C 226.257812 133.269531 227.027344 132.589844 227.304688 131.414062 C 227.601562 130.175781 227.144531 129.203125 226.191406 128.441406 C 222.980469 125.882812 219.769531 123.324219 216.527344 120.804688 C 215.972656 120.371094 215.269531 120.125 214.632812 119.789062 C 213.402344 119.945312 212.382812 120.628906 211.914062 121.730469 Z M 250.90625 289.949219 C 250.90625 290.339844 250.890625 290.730469 250.929688 291.117188 C 251.085938 292.648438 252.320312 293.78125 253.789062 293.761719 C 255.210938 293.742188 256.402344 292.644531 256.578125 291.175781 C 256.613281 290.875 256.601562 290.570312 256.601562 290.265625 C 256.605469 282.132812 256.605469 273.996094 256.601562 265.859375 C 256.601562 265.515625 256.625 265.160156 256.558594 264.824219 C 256.339844 263.671875 255.6875 262.863281 254.546875 262.496094 C 253.492188 262.160156 252.570312 262.464844 251.796875 263.1875 C 251.089844 263.847656 250.898438 264.71875 250.902344 265.671875 C 250.914062 269.78125 250.90625 273.894531 250.90625 278.003906 C 250.90625 281.984375 250.90625 285.96875 250.90625 289.949219 Z M 123.261719 281.585938 C 123.191406 279.351562 121.03125 278.0625 119.121094 279.066406 C 118.015625 279.644531 117.585938 280.636719 117.589844 281.859375 C 117.597656 284.539062 117.589844 287.214844 117.589844 289.894531 C 117.589844 291.839844 117.585938 293.785156 117.597656 295.730469 C 117.605469 296.953125 118.109375 297.914062 119.253906 298.433594 C 121.171875 299.304688 123.199219 298.03125 123.261719 295.84375 C 123.328125 293.46875 123.277344 291.089844 123.277344 288.714844 C 123.277344 286.335938 123.332031 283.960938 123.261719 281.585938 Z M 222.347656 194.199219 C 220.585938 195.460938 218.972656 196.621094 217.351562 197.777344 C 216.058594 198.695312 214.691406 199.246094 213.023438 199.210938 C 208.648438 199.125 204.273438 199.183594 199.898438 199.183594 C 198.082031 199.179688 196.261719 199.210938 194.445312 199.171875 C 191.773438 199.113281 190.359375 197.664062 190.355469 195.050781 C 190.355469 189.855469 190.355469 184.660156 190.355469 179.460938 C 190.355469 177.65625 190.847656 176.070312 192.25 174.816406 C 193.15625 174.011719 193.976562 173.113281 194.820312 172.242188 C 195.046875 172.007812 195.214844 171.71875 195.484375 171.347656 C 192.574219 168.609375 189.726562 165.929688 186.828125 163.195312 C 184.054688 165.816406 181.417969 168.316406 178.777344 170.804688 C 178.226562 171.320312 178.347656 171.757812 178.828125 172.234375 C 179.695312 173.082031 180.503906 173.996094 181.40625 174.800781 C 182.808594 176.050781 183.316406 177.632812 183.316406 179.441406 C 183.320312 184.679688 183.320312 189.921875 183.316406 195.160156 C 183.3125 197.328125 182.601562 198.328125 180.519531 198.949219 C 179.910156 199.128906 179.242188 199.171875 178.601562 199.171875 C 172.667969 199.191406 166.734375 199.132812 160.804688 199.214844 C 159.046875 199.238281 157.601562 198.707031 156.230469 197.710938 C 154.628906 196.546875 153.003906 195.410156 151.320312 194.207031 C 148.757812 197.25 146.261719 200.21875 143.691406 203.273438 C 146.195312 206.003906 148.632812 208.667969 151.136719 211.402344 C 152.351562 210.425781 153.433594 209.566406 154.503906 208.695312 C 155.886719 207.566406 157.40625 206.953125 159.261719 206.972656 C 165.277344 207.042969 171.296875 206.992188 177.316406 207.007812 C 178.179688 207.011719 179.042969 207.117188 179.898438 207.214844 C 180.726562 207.308594 181.433594 207.75 181.769531 208.464844 C 182.082031 209.140625 182.257812 209.945312 182.257812 210.691406 C 182.285156 227.753906 182.269531 244.816406 182.285156 261.878906 C 182.289062 263.734375 181.769531 265.351562 180.59375 266.789062 C 179.636719 267.953125 178.746094 269.164062 177.933594 270.222656 C 181 273.285156 183.960938 276.238281 187.128906 279.398438 C 190.035156 276.535156 193.035156 273.578125 196.050781 270.609375 C 194.902344 269.121094 194.03125 267.9375 193.09375 266.804688 C 191.875 265.335938 191.378906 263.671875 191.382812 261.769531 C 191.40625 251.117188 191.394531 240.464844 191.394531 229.808594 C 191.394531 223.359375 191.390625 216.90625 191.398438 210.453125 C 191.402344 208.414062 192.230469 207.441406 194.265625 207.132812 C 194.988281 207.019531 195.730469 207.007812 196.464844 207.003906 C 202.269531 206.996094 208.070312 207.074219 213.871094 206.960938 C 216.109375 206.917969 217.921875 207.574219 219.558594 209.007812 C 220.492188 209.824219 221.496094 210.550781 222.558594 211.390625 C 225.078125 208.632812 227.488281 205.992188 229.976562 203.273438 C 227.417969 200.230469 224.925781 197.261719 222.347656 194.199219 Z M 206.839844 212.738281 C 204.847656 212.742188 202.859375 212.742188 200.867188 212.742188 C 199.636719 212.683594 198.402344 212.648438 197.089844 212.765625 C 197.089844 213.410156 197.089844 213.875 197.089844 214.347656 C 197.089844 218.230469 197.085938 222.113281 197.09375 225.996094 C 197.097656 229.277344 197.121094 232.554688 197.136719 235.835938 C 197.136719 237.894531 197.136719 239.957031 197.140625 242.023438 C 197.136719 243.363281 197.132812 244.703125 197.128906 246.042969 C 197.117188 251.339844 197.101562 256.632812 197.089844 261.929688 C 197.085938 262.820312 197.429688 263.503906 198.265625 263.898438 C 198.445312 264.097656 198.625 264.300781 198.808594 264.503906 C 199.4375 265.453125 200.003906 266.449219 200.710938 267.339844 C 201.730469 268.625 202.371094 270.011719 202.308594 271.679688 C 201.675781 272.4375 201.054688 273.207031 200.410156 273.957031 C 199.933594 274.507812 199.425781 275.039062 198.929688 275.578125 C 197.324219 277.226562 195.71875 278.871094 194.117188 280.519531 C 193.746094 280.800781 193.347656 281.054688 193.015625 281.375 C 192.011719 282.328125 191.089844 283.371094 190.027344 284.242188 C 189.492188 284.683594 189.285156 285.089844 189.285156 285.75 C 189.308594 293.347656 189.308594 300.949219 189.3125 308.546875 C 187.402344 308.546875 185.492188 308.546875 183.582031 308.546875 C 183.585938 300.769531 183.582031 292.992188 183.609375 285.21875 C 183.613281 284.375 183.285156 283.820312 182.597656 283.417969 C 181.101562 281.886719 179.605469 280.355469 178.097656 278.832031 C 178.019531 278.75 177.863281 278.746094 177.742188 278.703125 C 177.640625 278.519531 177.574219 278.296875 177.429688 278.152344 C 175.523438 276.257812 173.605469 274.371094 171.6875 272.480469 C 170.992188 270.570312 171.699219 268.996094 172.839844 267.503906 C 173.378906 266.796875 173.832031 266.03125 174.328125 265.292969 C 175.285156 264.476562 176.417969 263.585938 176.5 262.359375 C 176.65625 259.871094 176.449219 257.359375 176.394531 254.855469 C 176.457031 254.4375 176.574219 254.023438 176.578125 253.605469 C 176.597656 251.09375 176.59375 248.585938 176.582031 246.078125 C 176.582031 245.519531 176.5 244.960938 176.492188 244.398438 C 176.480469 242.9375 176.480469 241.476562 176.492188 240.011719 C 176.5 238.585938 176.535156 237.164062 176.558594 235.738281 C 176.566406 228.386719 176.574219 221.035156 176.574219 213.683594 C 176.574219 213.394531 176.5 213.109375 176.445312 212.742188 C 175.484375 212.742188 174.585938 212.742188 173.6875 212.742188 C 171.699219 212.742188 169.710938 212.742188 167.722656 212.738281 C 164.914062 212.726562 162.105469 212.703125 159.296875 212.710938 C 158.96875 212.710938 158.566406 212.769531 158.324219 212.960938 C 157.277344 213.789062 156.28125 214.675781 155.265625 215.535156 C 154.945312 215.738281 154.574219 215.886719 154.316406 216.148438 C 153.050781 217.433594 151.570312 217.996094 149.777344 217.609375 C 149.203125 217.230469 148.523438 216.949219 148.070312 216.460938 C 145.15625 213.328125 142.277344 210.164062 139.421875 206.976562 C 138.945312 206.445312 138.46875 206.1875 137.753906 206.191406 C 130.269531 206.214844 122.792969 206.214844 115.308594 206.222656 C 115.328125 204.304688 115.34375 202.386719 115.363281 200.46875 C 122.796875 200.480469 130.226562 200.480469 137.660156 200.519531 C 138.402344 200.523438 138.875 200.210938 139.308594 199.691406 C 141.335938 197.277344 143.390625 194.882812 145.40625 192.457031 C 146.257812 191.429688 147.042969 190.351562 147.859375 189.296875 C 148.589844 188.878906 149.273438 188.324219 150.054688 188.074219 C 151.09375 187.742188 152.15625 187.828125 153.117188 188.527344 C 154.015625 189.175781 154.96875 189.742188 155.898438 190.34375 C 157.167969 191.304688 158.425781 192.285156 159.722656 193.207031 C 160.011719 193.410156 160.453125 193.464844 160.824219 193.472656 C 161.949219 193.492188 163.070312 193.457031 164.191406 193.441406 C 166.332031 193.441406 168.476562 193.445312 170.617188 193.445312 C 171.785156 193.457031 172.953125 193.492188 174.117188 193.480469 C 175.261719 193.46875 176.417969 193.578125 177.539062 193.394531 C 177.578125 193.0625 177.617188 192.894531 177.617188 192.722656 C 177.621094 188.445312 177.613281 184.164062 177.628906 179.882812 C 177.632812 179.269531 177.421875 178.820312 176.992188 178.402344 C 175.539062 176.984375 174.117188 175.53125 172.667969 174.109375 C 172.398438 173.84375 172.050781 173.660156 171.738281 173.441406 C 171.648438 173.160156 171.574219 172.871094 171.460938 172.59375 C 170.992188 171.445312 171.144531 170.386719 172.003906 169.5 C 173.074219 168.390625 174.210938 167.339844 175.308594 166.257812 C 175.578125 165.988281 175.808594 165.683594 176.058594 165.394531 C 176.488281 165.035156 176.929688 164.691406 177.339844 164.316406 C 179.152344 162.644531 180.933594 160.941406 182.777344 159.300781 C 183.503906 158.648438 184.007812 158.039062 183.636719 156.984375 C 183.5 156.597656 183.597656 156.128906 183.597656 155.695312 C 183.597656 149.550781 183.601562 143.40625 183.597656 137.265625 C 183.59375 125.410156 183.585938 113.558594 183.578125 101.703125 C 183.710938 101.601562 183.832031 101.480469 183.976562 101.40625 C 186.660156 99.964844 186.660156 99.964844 189.3125 101.648438 C 189.308594 101.953125 189.296875 102.253906 189.296875 102.558594 C 189.292969 120.640625 189.292969 138.726562 189.273438 156.808594 C 189.273438 157.480469 189.484375 157.949219 189.964844 158.390625 C 191.96875 160.238281 193.941406 162.113281 195.949219 163.957031 C 196.355469 164.328125 196.835938 164.617188 197.285156 164.941406 C 198.3125 166.011719 199.335938 167.085938 200.363281 168.15625 C 200.777344 168.585938 201.214844 169 201.621094 169.433594 C 202.5 170.375 202.695312 171.4375 202.199219 172.632812 C 202.101562 172.863281 202.066406 173.121094 202 173.367188 C 201.660156 173.621094 201.285156 173.835938 200.984375 174.132812 C 199.59375 175.492188 198.25 176.890625 196.84375 178.230469 C 196.265625 178.78125 196.027344 179.363281 196.035156 180.164062 C 196.070312 184.175781 196.050781 188.191406 196.054688 192.203125 C 196.054688 192.582031 196.109375 192.957031 196.144531 193.445312 C 198.582031 193.445312 200.941406 193.445312 203.300781 193.445312 C 205.402344 193.445312 207.503906 193.445312 209.605469 193.445312 C 210.511719 193.457031 211.421875 193.488281 212.332031 193.480469 C 212.800781 193.472656 213.378906 193.546875 213.71875 193.3125 C 215.167969 192.316406 216.546875 191.21875 217.953125 190.15625 C 218.394531 189.914062 218.890625 189.738281 219.269531 189.417969 C 220.488281 188.398438 221.835938 187.785156 223.449219 187.816406 C 224.675781 188.472656 225.722656 189.324219 226.609375 190.417969 C 228.929688 193.265625 231.316406 196.0625 233.65625 198.898438 C 234.132812 199.472656 234.652344 199.753906 235.429688 199.738281 C 237.71875 199.695312 240.011719 199.726562 242.308594 199.722656 C 248.0625 199.710938 253.816406 199.699219 259.570312 199.683594 C 259.597656 201.601562 259.625 203.523438 259.652344 205.441406 C 252.691406 205.4375 245.726562 205.503906 238.769531 205.375 C 236.621094 205.335938 234.863281 205.613281 233.722656 207.597656 C 233.679688 207.671875 233.605469 207.726562 233.546875 207.789062 C 231.03125 210.527344 228.535156 213.277344 225.996094 215.996094 C 225.480469 216.546875 224.808594 216.960938 224.207031 217.441406 C 223.871094 217.507812 223.539062 217.589844 223.195312 217.644531 C 222.125 217.816406 221.167969 217.636719 220.296875 216.902344 C 219.757812 216.445312 219.09375 216.132812 218.488281 215.753906 C 217.363281 214.773438 216.253906 213.78125 215.105469 212.828125 C 214.9375 212.6875 214.609375 212.703125 214.355469 212.703125 C 211.847656 212.710938 209.34375 212.726562 206.839844 212.738281 " fill-opacity="1" fill-rule="evenodd"/><g fill="#ffffff" fill-opacity="1"><g transform="translate(33.347027, 354.481618)"><g><path d="M 12.65625 -7.65625 C 12.65625 -5.175781 12.054688 -3.28125 10.859375 -1.96875 C 9.660156 -0.65625 8.023438 0 5.953125 0 L 0.421875 0 L 0.421875 -0.40625 C 0.941406 -0.40625 1.3125 -0.519531 1.53125 -0.75 C 1.757812 -0.976562 1.875 -1.351562 1.875 -1.875 L 1.875 -13.4375 C 1.875 -13.96875 1.753906 -14.332031 1.515625 -14.53125 C 1.285156 -14.738281 0.921875 -14.851562 0.421875 -14.875 L 0.421875 -15.265625 L 6.34375 -15.265625 C 7.59375 -15.265625 8.691406 -14.957031 9.640625 -14.34375 C 10.597656 -13.738281 11.335938 -12.863281 11.859375 -11.71875 C 12.390625 -10.582031 12.65625 -9.226562 12.65625 -7.65625 Z M 5.953125 -0.828125 C 6.941406 -0.828125 7.664062 -1.15625 8.125 -1.8125 C 8.46875 -2.269531 8.734375 -2.992188 8.921875 -3.984375 C 9.109375 -4.972656 9.203125 -6.175781 9.203125 -7.59375 C 9.203125 -8.875 9.113281 -9.96875 8.9375 -10.875 C 8.757812 -11.789062 8.523438 -12.515625 8.234375 -13.046875 C 7.953125 -13.585938 7.570312 -13.953125 7.09375 -14.140625 C 6.613281 -14.335938 6.054688 -14.4375 5.421875 -14.4375 L 4.96875 -14.4375 L 4.96875 -2.1875 C 4.96875 -1.625 5.035156 -1.253906 5.171875 -1.078125 C 5.316406 -0.910156 5.578125 -0.828125 5.953125 -0.828125 Z M 5.953125 -0.828125 "/></g></g></g><g fill="#ffffff" fill-opacity="1"><g transform="translate(50.53897, 354.481618)"><g><path d="M 6.1875 -14.875 L 6 -14.875 C 5.195312 -14.875 4.796875 -14.394531 4.796875 -13.4375 L 4.796875 -1.875 C 4.796875 -1.320312 4.90625 -0.9375 5.125 -0.71875 C 5.351562 -0.507812 5.707031 -0.40625 6.1875 -0.40625 L 6.1875 0 L 0.359375 0 L 0.359375 -0.40625 C 0.847656 -0.40625 1.191406 -0.523438 1.390625 -0.765625 C 1.597656 -1.003906 1.703125 -1.375 1.703125 -1.875 L 1.703125 -13.4375 C 1.703125 -13.945312 1.59375 -14.3125 1.375 -14.53125 C 1.15625 -14.757812 0.816406 -14.875 0.359375 -14.875 L 0.359375 -15.265625 L 6.1875 -15.265625 Z M 6.1875 -14.875 "/></g></g></g><g fill="#ffffff" fill-opacity="1"><g transform="translate(60.971289, 354.481618)"><g><path d="M 10.5 -11.078125 L 10.09375 -11.078125 C 9.988281 -12.066406 9.753906 -12.800781 9.390625 -13.28125 C 9.035156 -13.769531 8.566406 -14.082031 7.984375 -14.21875 C 7.410156 -14.363281 6.613281 -14.4375 5.59375 -14.4375 L 4.875 -14.4375 L 4.875 -8.125 C 5.9375 -8.15625 6.695312 -8.421875 7.15625 -8.921875 C 7.625 -9.429688 7.859375 -10.234375 7.859375 -11.328125 L 8.28125 -11.328125 L 8.28125 -3.890625 L 7.859375 -3.890625 C 7.859375 -6.148438 6.863281 -7.285156 4.875 -7.296875 L 4.875 -1.921875 C 4.875 -1.335938 4.984375 -0.941406 5.203125 -0.734375 C 5.421875 -0.523438 5.789062 -0.414062 6.3125 -0.40625 L 6.3125 0 L 0.421875 0 L 0.421875 -0.40625 C 0.898438 -0.4375 1.25 -0.546875 1.46875 -0.734375 C 1.6875 -0.929688 1.796875 -1.320312 1.796875 -1.90625 L 1.796875 -13.484375 C 1.796875 -13.941406 1.679688 -14.28125 1.453125 -14.5 C 1.234375 -14.726562 0.890625 -14.851562 0.421875 -14.875 L 0.421875 -15.265625 L 10.5 -15.265625 Z M 10.5 -11.078125 "/></g></g></g><g fill="#ffffff" fill-opacity="1"><g transform="translate(75.835412, 354.481618)"><g><path d="M 10.609375 -10.90625 L 10.203125 -10.90625 C 10.097656 -11.914062 9.828125 -12.679688 9.390625 -13.203125 C 8.960938 -13.734375 8.453125 -14.070312 7.859375 -14.21875 C 7.273438 -14.363281 6.570312 -14.4375 5.75 -14.4375 L 4.96875 -14.4375 L 4.96875 -8.171875 C 5.882812 -8.203125 6.550781 -8.507812 6.96875 -9.09375 C 7.382812 -9.6875 7.59375 -10.550781 7.59375 -11.6875 L 8 -11.6875 L 8 -3.921875 L 7.59375 -3.921875 C 7.59375 -5.035156 7.382812 -5.878906 6.96875 -6.453125 C 6.550781 -7.035156 5.882812 -7.332031 4.96875 -7.34375 L 4.96875 -2.5 C 4.96875 -2.007812 5.007812 -1.644531 5.09375 -1.40625 C 5.175781 -1.164062 5.3125 -1.007812 5.5 -0.9375 C 5.6875 -0.863281 5.957031 -0.828125 6.3125 -0.828125 C 7.28125 -0.828125 8.070312 -0.953125 8.6875 -1.203125 C 9.300781 -1.460938 9.804688 -1.867188 10.203125 -2.421875 C 10.597656 -2.972656 10.957031 -3.734375 11.28125 -4.703125 L 11.6875 -4.703125 L 10.953125 0 L 0.296875 0 L 0.296875 -0.40625 L 0.515625 -0.40625 C 0.960938 -0.40625 1.300781 -0.507812 1.53125 -0.71875 C 1.757812 -0.925781 1.875 -1.3125 1.875 -1.875 L 1.875 -13.390625 C 1.875 -13.953125 1.757812 -14.335938 1.53125 -14.546875 C 1.3125 -14.765625 0.941406 -14.875 0.421875 -14.875 L 0.296875 -14.875 L 0.296875 -15.265625 L 10.609375 -15.265625 Z M 10.609375 -10.90625 "/></g></g></g><g fill="#ffffff" fill-opacity="1"><g transform="translate(91.863445, 354.481618)"><g><path d="M 7.03125 -14.875 L 6.734375 -14.875 C 6.179688 -14.875 5.78125 -14.773438 5.53125 -14.578125 C 5.289062 -14.378906 5.171875 -14.015625 5.171875 -13.484375 L 5.171875 -2.109375 C 5.171875 -1.585938 5.265625 -1.242188 5.453125 -1.078125 C 5.648438 -0.910156 5.957031 -0.828125 6.375 -0.828125 C 7.332031 -0.828125 8.101562 -0.941406 8.6875 -1.171875 C 9.269531 -1.398438 9.765625 -1.828125 10.171875 -2.453125 C 10.585938 -3.085938 10.957031 -4.015625 11.28125 -5.234375 L 11.6875 -5.234375 L 11.125 0 L 0.359375 0 L 0.359375 -0.40625 C 1.003906 -0.414062 1.453125 -0.515625 1.703125 -0.703125 C 1.953125 -0.898438 2.078125 -1.300781 2.078125 -1.90625 L 2.078125 -13.453125 C 2.078125 -13.972656 1.953125 -14.335938 1.703125 -14.546875 C 1.460938 -14.765625 1.101562 -14.875 0.625 -14.875 L 0.359375 -14.875 L 0.359375 -15.265625 L 7.03125 -15.265625 Z M 7.03125 -14.875 "/></g></g></g><g fill="#ffffff" fill-opacity="1"><g transform="translate(107.891478, 354.481618)"><g><path d="M 6.40625 -15.625 L 10.203125 -2.890625 C 10.421875 -2.210938 10.59375 -1.71875 10.71875 -1.40625 C 10.84375 -1.09375 10.984375 -0.851562 11.140625 -0.6875 C 11.296875 -0.53125 11.507812 -0.4375 11.78125 -0.40625 L 11.78125 0 L 6.40625 0 L 6.40625 -0.40625 C 6.8125 -0.40625 7.097656 -0.445312 7.265625 -0.53125 C 7.429688 -0.625 7.515625 -0.78125 7.515625 -1 C 7.515625 -1.132812 7.492188 -1.3125 7.453125 -1.53125 C 7.410156 -1.757812 7.367188 -1.953125 7.328125 -2.109375 L 6.875 -3.625 L 3.0625 -3.625 L 2.578125 -1.953125 C 2.453125 -1.578125 2.390625 -1.304688 2.390625 -1.140625 C 2.390625 -0.890625 2.476562 -0.703125 2.65625 -0.578125 C 2.84375 -0.460938 3.128906 -0.40625 3.515625 -0.40625 L 3.515625 0 L 0.359375 0 L 0.359375 -0.40625 C 0.628906 -0.445312 0.847656 -0.535156 1.015625 -0.671875 C 1.191406 -0.816406 1.34375 -1.046875 1.46875 -1.359375 C 1.601562 -1.679688 1.78125 -2.171875 2 -2.828125 L 6 -15.625 Z M 6.625 -4.453125 L 5.03125 -9.765625 L 5 -9.765625 L 3.34375 -4.453125 Z M 6.625 -4.453125 "/></g></g></g><g fill="#ffffff" fill-opacity="1"><g transform="translate(123.919511, 354.481618)"><g/></g></g><g fill="#ffffff" fill-opacity="1"><g transform="translate(132.06878, 354.481618)"><g><path d="M 11.59375 -11.234375 L 11.1875 -11.234375 C 11.101562 -12.054688 10.9375 -12.695312 10.6875 -13.15625 C 10.445312 -13.613281 10.085938 -13.941406 9.609375 -14.140625 C 9.128906 -14.335938 8.460938 -14.4375 7.609375 -14.4375 L 7.609375 -1.875 C 7.609375 -1.3125 7.722656 -0.925781 7.953125 -0.71875 C 8.191406 -0.507812 8.554688 -0.40625 9.046875 -0.40625 L 9.296875 -0.40625 L 9.296875 0 L 2.84375 0 L 2.84375 -0.40625 L 3.109375 -0.40625 C 3.597656 -0.40625 3.953125 -0.519531 4.171875 -0.75 C 4.398438 -0.976562 4.515625 -1.34375 4.515625 -1.84375 L 4.515625 -14.4375 C 3.679688 -14.4375 3.023438 -14.351562 2.546875 -14.1875 C 2.078125 -14.03125 1.707031 -13.71875 1.4375 -13.25 C 1.175781 -12.789062 1.007812 -12.117188 0.9375 -11.234375 L 0.53125 -11.234375 L 0.53125 -15.265625 L 11.59375 -15.265625 Z M 11.59375 -11.234375 "/></g></g></g><g fill="#ffffff" fill-opacity="1"><g transform="translate(148.096813, 354.481618)"><g><path d="M 4.390625 -15.625 C 4.835938 -15.625 5.222656 -15.566406 5.546875 -15.453125 C 5.878906 -15.347656 6.253906 -15.195312 6.671875 -15 C 7.117188 -14.78125 7.429688 -14.671875 7.609375 -14.671875 C 7.816406 -14.671875 7.976562 -14.742188 8.09375 -14.890625 C 8.207031 -15.035156 8.296875 -15.28125 8.359375 -15.625 L 8.75 -15.625 L 8.890625 -10.65625 L 8.484375 -10.65625 C 8.265625 -11.90625 7.8125 -12.90625 7.125 -13.65625 C 6.445312 -14.414062 5.660156 -14.796875 4.765625 -14.796875 C 4.140625 -14.796875 3.609375 -14.582031 3.171875 -14.15625 C 2.742188 -13.738281 2.53125 -13.207031 2.53125 -12.5625 C 2.53125 -12.09375 2.648438 -11.6875 2.890625 -11.34375 C 3.140625 -11.007812 3.453125 -10.710938 3.828125 -10.453125 C 4.203125 -10.203125 4.722656 -9.894531 5.390625 -9.53125 C 6.253906 -9.070312 6.960938 -8.644531 7.515625 -8.25 C 8.078125 -7.851562 8.550781 -7.328125 8.9375 -6.671875 C 9.320312 -6.015625 9.515625 -5.207031 9.515625 -4.25 C 9.515625 -3.375 9.328125 -2.585938 8.953125 -1.890625 C 8.578125 -1.191406 8.0625 -0.644531 7.40625 -0.25 C 6.75 0.132812 6.019531 0.328125 5.21875 0.328125 C 4.78125 0.328125 4.382812 0.28125 4.03125 0.1875 C 3.6875 0.09375 3.257812 -0.0507812 2.75 -0.25 C 2.257812 -0.457031 1.914062 -0.5625 1.71875 -0.5625 C 1.320312 -0.5625 1.054688 -0.265625 0.921875 0.328125 L 0.53125 0.328125 L 0.53125 -5.328125 L 0.9375 -5.328125 C 1.070312 -4.390625 1.332031 -3.550781 1.71875 -2.8125 C 2.113281 -2.082031 2.597656 -1.515625 3.171875 -1.109375 C 3.742188 -0.703125 4.359375 -0.5 5.015625 -0.5 C 5.671875 -0.5 6.210938 -0.734375 6.640625 -1.203125 C 7.078125 -1.679688 7.296875 -2.296875 7.296875 -3.046875 C 7.296875 -3.566406 7.207031 -3.976562 7.03125 -4.28125 C 6.851562 -4.59375 6.5625 -4.90625 6.15625 -5.21875 C 5.875 -5.4375 5.238281 -5.847656 4.25 -6.453125 L 3.765625 -6.734375 C 2.710938 -7.367188 1.90625 -8.023438 1.34375 -8.703125 C 0.789062 -9.378906 0.515625 -10.269531 0.515625 -11.375 C 0.515625 -12.207031 0.675781 -12.941406 1 -13.578125 C 1.332031 -14.222656 1.789062 -14.722656 2.375 -15.078125 C 2.96875 -15.441406 3.640625 -15.625 4.390625 -15.625 Z M 4.390625 -15.625 "/></g></g></g><g fill="#ffffff" fill-opacity="1"><g transform="translate(162.020861, 354.481618)"><g><path d="M 6.40625 -15.625 L 10.203125 -2.890625 C 10.421875 -2.210938 10.59375 -1.71875 10.71875 -1.40625 C 10.84375 -1.09375 10.984375 -0.851562 11.140625 -0.6875 C 11.296875 -0.53125 11.507812 -0.4375 11.78125 -0.40625 L 11.78125 0 L 6.40625 0 L 6.40625 -0.40625 C 6.8125 -0.40625 7.097656 -0.445312 7.265625 -0.53125 C 7.429688 -0.625 7.515625 -0.78125 7.515625 -1 C 7.515625 -1.132812 7.492188 -1.3125 7.453125 -1.53125 C 7.410156 -1.757812 7.367188 -1.953125 7.328125 -2.109375 L 6.875 -3.625 L 3.0625 -3.625 L 2.578125 -1.953125 C 2.453125 -1.578125 2.390625 -1.304688 2.390625 -1.140625 C 2.390625 -0.890625 2.476562 -0.703125 2.65625 -0.578125 C 2.84375 -0.460938 3.128906 -0.40625 3.515625 -0.40625 L 3.515625 0 L 0.359375 0 L 0.359375 -0.40625 C 0.628906 -0.445312 0.847656 -0.535156 1.015625 -0.671875 C 1.191406 -0.816406 1.34375 -1.046875 1.46875 -1.359375 C 1.601562 -1.679688 1.78125 -2.171875 2 -2.828125 L 6 -15.625 Z M 6.625 -4.453125 L 5.03125 -9.765625 L 5 -9.765625 L 3.34375 -4.453125 Z M 6.625 -4.453125 "/></g></g></g><g fill="#ffffff" fill-opacity="1"><g transform="translate(178.048894, 354.481618)"><g/></g></g><g fill="#ffffff" fill-opacity="1"><g transform="translate(186.198162, 354.481618)"><g><path d="M 11.0625 -11.53125 C 11.0625 -9.53125 9.664062 -8.375 6.875 -8.0625 L 6.875 -8.015625 L 6.890625 -8.015625 C 8.503906 -7.878906 9.707031 -7.476562 10.5 -6.8125 C 11.289062 -6.15625 11.6875 -5.265625 11.6875 -4.140625 C 11.6875 -3.347656 11.476562 -2.640625 11.0625 -2.015625 C 10.644531 -1.390625 10.039062 -0.894531 9.25 -0.53125 C 8.46875 -0.175781 7.550781 0 6.5 0 L 0.359375 0 L 0.359375 -0.40625 C 0.878906 -0.40625 1.25 -0.519531 1.46875 -0.75 C 1.6875 -0.976562 1.796875 -1.382812 1.796875 -1.96875 L 1.796875 -13.390625 C 1.796875 -13.929688 1.6875 -14.3125 1.46875 -14.53125 C 1.25 -14.757812 0.878906 -14.875 0.359375 -14.875 L 0.359375 -15.265625 L 5.46875 -15.265625 C 7.15625 -15.265625 8.507812 -14.953125 9.53125 -14.328125 C 10.550781 -13.703125 11.0625 -12.769531 11.0625 -11.53125 Z M 5.34375 -8.359375 C 6.15625 -8.359375 6.773438 -8.582031 7.203125 -9.03125 C 7.628906 -9.488281 7.84375 -10.269531 7.84375 -11.375 C 7.84375 -12.488281 7.628906 -13.273438 7.203125 -13.734375 C 6.773438 -14.191406 6.078125 -14.425781 5.109375 -14.4375 L 4.875 -14.4375 L 4.875 -8.359375 Z M 5.90625 -0.828125 C 6.664062 -0.828125 7.242188 -1.101562 7.640625 -1.65625 C 8.035156 -2.207031 8.234375 -3 8.234375 -4.03125 C 8.234375 -6.351562 7.21875 -7.515625 5.1875 -7.515625 L 4.875 -7.515625 L 4.875 -2.21875 C 4.875 -1.644531 4.953125 -1.269531 5.109375 -1.09375 C 5.265625 -0.914062 5.53125 -0.828125 5.90625 -0.828125 Z M 5.90625 -0.828125 "/></g></g></g><g fill="#ffffff" fill-opacity="1"><g transform="translate(202.226195, 354.481618)"><g><path d="M 6.40625 -15.625 L 10.203125 -2.890625 C 10.421875 -2.210938 10.59375 -1.71875 10.71875 -1.40625 C 10.84375 -1.09375 10.984375 -0.851562 11.140625 -0.6875 C 11.296875 -0.53125 11.507812 -0.4375 11.78125 -0.40625 L 11.78125 0 L 6.40625 0 L 6.40625 -0.40625 C 6.8125 -0.40625 7.097656 -0.445312 7.265625 -0.53125 C 7.429688 -0.625 7.515625 -0.78125 7.515625 -1 C 7.515625 -1.132812 7.492188 -1.3125 7.453125 -1.53125 C 7.410156 -1.757812 7.367188 -1.953125 7.328125 -2.109375 L 6.875 -3.625 L 3.0625 -3.625 L 2.578125 -1.953125 C 2.453125 -1.578125 2.390625 -1.304688 2.390625 -1.140625 C 2.390625 -0.890625 2.476562 -0.703125 2.65625 -0.578125 C 2.84375 -0.460938 3.128906 -0.40625 3.515625 -0.40625 L 3.515625 0 L 0.359375 0 L 0.359375 -0.40625 C 0.628906 -0.445312 0.847656 -0.535156 1.015625 -0.671875 C 1.191406 -0.816406 1.34375 -1.046875 1.46875 -1.359375 C 1.601562 -1.679688 1.78125 -2.171875 2 -2.828125 L 6 -15.625 Z M 6.625 -4.453125 L 5.03125 -9.765625 L 5 -9.765625 L 3.34375 -4.453125 Z M 6.625 -4.453125 "/></g></g></g><g fill="#ffffff" fill-opacity="1"><g transform="translate(218.254228, 354.481618)"><g><path d="M 6.625 -14.875 L 6.5 -14.875 C 6.019531 -14.875 5.664062 -14.765625 5.4375 -14.546875 C 5.21875 -14.328125 5.109375 -13.988281 5.109375 -13.53125 L 5.109375 -7.65625 L 5.15625 -7.65625 L 8.359375 -12.15625 C 8.679688 -12.601562 8.90625 -12.953125 9.03125 -13.203125 C 9.15625 -13.460938 9.21875 -13.71875 9.21875 -13.96875 C 9.21875 -14.28125 9.101562 -14.503906 8.875 -14.640625 C 8.644531 -14.773438 8.285156 -14.851562 7.796875 -14.875 L 7.796875 -15.265625 L 12.5625 -15.265625 L 12.5625 -14.875 C 12.007812 -14.8125 11.484375 -14.59375 10.984375 -14.21875 C 10.492188 -13.84375 9.984375 -13.289062 9.453125 -12.5625 L 7.5 -9.890625 L 11.359375 -2.21875 L 11.59375 -1.703125 C 11.832031 -1.191406 12.035156 -0.847656 12.203125 -0.671875 C 12.378906 -0.503906 12.675781 -0.414062 13.09375 -0.40625 L 13.09375 0 L 7.5 0 L 7.5 -0.40625 C 7.832031 -0.40625 8.085938 -0.445312 8.265625 -0.53125 C 8.441406 -0.613281 8.53125 -0.757812 8.53125 -0.96875 C 8.53125 -1.207031 8.453125 -1.488281 8.296875 -1.8125 C 8.140625 -2.144531 8.046875 -2.335938 8.015625 -2.390625 L 5.546875 -7.234375 L 5.109375 -6.609375 L 5.109375 -1.859375 C 5.109375 -1.316406 5.21875 -0.9375 5.4375 -0.71875 C 5.664062 -0.507812 6.007812 -0.40625 6.46875 -0.40625 L 6.46875 0 L 0.6875 0 L 0.6875 -0.40625 C 1.164062 -0.40625 1.503906 -0.507812 1.703125 -0.71875 C 1.910156 -0.925781 2.015625 -1.257812 2.015625 -1.71875 L 2.015625 -13.53125 C 2.015625 -14 1.910156 -14.335938 1.703125 -14.546875 C 1.492188 -14.765625 1.15625 -14.875 0.6875 -14.875 L 0.6875 -15.265625 L 6.625 -15.265625 Z M 6.625 -14.875 "/></g></g></g><g fill="#ffffff" fill-opacity="1"><g transform="translate(235.446171, 354.481618)"><g><path d="M 6.40625 -15.625 L 10.203125 -2.890625 C 10.421875 -2.210938 10.59375 -1.71875 10.71875 -1.40625 C 10.84375 -1.09375 10.984375 -0.851562 11.140625 -0.6875 C 11.296875 -0.53125 11.507812 -0.4375 11.78125 -0.40625 L 11.78125 0 L 6.40625 0 L 6.40625 -0.40625 C 6.8125 -0.40625 7.097656 -0.445312 7.265625 -0.53125 C 7.429688 -0.625 7.515625 -0.78125 7.515625 -1 C 7.515625 -1.132812 7.492188 -1.3125 7.453125 -1.53125 C 7.410156 -1.757812 7.367188 -1.953125 7.328125 -2.109375 L 6.875 -3.625 L 3.0625 -3.625 L 2.578125 -1.953125 C 2.453125 -1.578125 2.390625 -1.304688 2.390625 -1.140625 C 2.390625 -0.890625 2.476562 -0.703125 2.65625 -0.578125 C 2.84375 -0.460938 3.128906 -0.40625 3.515625 -0.40625 L 3.515625 0 L 0.359375 0 L 0.359375 -0.40625 C 0.628906 -0.445312 0.847656 -0.535156 1.015625 -0.671875 C 1.191406 -0.816406 1.34375 -1.046875 1.46875 -1.359375 C 1.601562 -1.679688 1.78125 -2.171875 2 -2.828125 L 6 -15.625 Z M 6.625 -4.453125 L 5.03125 -9.765625 L 5 -9.765625 L 3.34375 -4.453125 Z M 6.625 -4.453125 "/></g></g></g><g fill="#ffffff" fill-opacity="1"><g transform="translate(251.474193, 354.481618)"><g><path d="M 11.59375 -11.234375 L 11.1875 -11.234375 C 11.101562 -12.054688 10.9375 -12.695312 10.6875 -13.15625 C 10.445312 -13.613281 10.085938 -13.941406 9.609375 -14.140625 C 9.128906 -14.335938 8.460938 -14.4375 7.609375 -14.4375 L 7.609375 -1.875 C 7.609375 -1.3125 7.722656 -0.925781 7.953125 -0.71875 C 8.191406 -0.507812 8.554688 -0.40625 9.046875 -0.40625 L 9.296875 -0.40625 L 9.296875 0 L 2.84375 0 L 2.84375 -0.40625 L 3.109375 -0.40625 C 3.597656 -0.40625 3.953125 -0.519531 4.171875 -0.75 C 4.398438 -0.976562 4.515625 -1.34375 4.515625 -1.84375 L 4.515625 -14.4375 C 3.679688 -14.4375 3.023438 -14.351562 2.546875 -14.1875 C 2.078125 -14.03125 1.707031 -13.71875 1.4375 -13.25 C 1.175781 -12.789062 1.007812 -12.117188 0.9375 -11.234375 L 0.53125 -11.234375 L 0.53125 -15.265625 L 11.59375 -15.265625 Z M 11.59375 -11.234375 "/></g></g></g><g fill="#ffffff" fill-opacity="1"><g transform="translate(267.502238, 354.481618)"><g><path d="M 7.203125 -15.625 C 8.296875 -15.625 9.335938 -15.351562 10.328125 -14.8125 C 11.328125 -14.269531 12.148438 -13.394531 12.796875 -12.1875 C 13.441406 -10.988281 13.765625 -9.457031 13.765625 -7.59375 C 13.765625 -5.707031 13.425781 -4.171875 12.75 -2.984375 C 12.082031 -1.796875 11.253906 -0.945312 10.265625 -0.4375 C 9.273438 0.0703125 8.269531 0.328125 7.25 0.328125 C 6.195312 0.328125 5.171875 0.0703125 4.171875 -0.4375 C 3.179688 -0.945312 2.351562 -1.789062 1.6875 -2.96875 C 1.019531 -4.15625 0.6875 -5.695312 0.6875 -7.59375 C 0.6875 -9.53125 1.023438 -11.097656 1.703125 -12.296875 C 2.390625 -13.503906 3.226562 -14.359375 4.21875 -14.859375 C 5.207031 -15.367188 6.203125 -15.625 7.203125 -15.625 Z M 4.140625 -7.71875 C 4.140625 -5.425781 4.34375 -3.648438 4.75 -2.390625 C 5.164062 -1.128906 5.992188 -0.5 7.234375 -0.5 C 8.441406 -0.5 9.257812 -1.109375 9.6875 -2.328125 C 10.113281 -3.554688 10.328125 -5.367188 10.328125 -7.765625 C 10.328125 -10.160156 10.101562 -11.929688 9.65625 -13.078125 C 9.21875 -14.222656 8.398438 -14.796875 7.203125 -14.796875 C 6.304688 -14.796875 5.628906 -14.429688 5.171875 -13.703125 C 4.722656 -12.972656 4.4375 -12.113281 4.3125 -11.125 C 4.195312 -10.144531 4.140625 -9.007812 4.140625 -7.71875 Z M 4.140625 -7.71875 "/></g></g></g><g fill="#ffffff" fill-opacity="1"><g transform="translate(285.858102, 354.481618)"><g><path d="M 7.03125 -14.875 L 6.734375 -14.875 C 6.179688 -14.875 5.78125 -14.773438 5.53125 -14.578125 C 5.289062 -14.378906 5.171875 -14.015625 5.171875 -13.484375 L 5.171875 -2.109375 C 5.171875 -1.585938 5.265625 -1.242188 5.453125 -1.078125 C 5.648438 -0.910156 5.957031 -0.828125 6.375 -0.828125 C 7.332031 -0.828125 8.101562 -0.941406 8.6875 -1.171875 C 9.269531 -1.398438 9.765625 -1.828125 10.171875 -2.453125 C 10.585938 -3.085938 10.957031 -4.015625 11.28125 -5.234375 L 11.6875 -5.234375 L 11.125 0 L 0.359375 0 L 0.359375 -0.40625 C 1.003906 -0.414062 1.453125 -0.515625 1.703125 -0.703125 C 1.953125 -0.898438 2.078125 -1.300781 2.078125 -1.90625 L 2.078125 -13.453125 C 2.078125 -13.972656 1.953125 -14.335938 1.703125 -14.546875 C 1.460938 -14.765625 1.101562 -14.875 0.625 -14.875 L 0.359375 -14.875 L 0.359375 -15.265625 L 7.03125 -15.265625 Z M 7.03125 -14.875 "/></g></g></g><g fill="#ffffff" fill-opacity="1"><g transform="translate(301.886123, 354.481618)"><g><path d="M 6.1875 -14.875 L 6 -14.875 C 5.195312 -14.875 4.796875 -14.394531 4.796875 -13.4375 L 4.796875 -1.875 C 4.796875 -1.320312 4.90625 -0.9375 5.125 -0.71875 C 5.351562 -0.507812 5.707031 -0.40625 6.1875 -0.40625 L 6.1875 0 L 0.359375 0 L 0.359375 -0.40625 C 0.847656 -0.40625 1.191406 -0.523438 1.390625 -0.765625 C 1.597656 -1.003906 1.703125 -1.375 1.703125 -1.875 L 1.703125 -13.4375 C 1.703125 -13.945312 1.59375 -14.3125 1.375 -14.53125 C 1.15625 -14.757812 0.816406 -14.875 0.359375 -14.875 L 0.359375 -15.265625 L 6.1875 -15.265625 Z M 6.1875 -14.875 "/></g></g></g><g fill="#ffffff" fill-opacity="1"><g transform="translate(312.318442, 354.481618)"><g><path d="M 6.625 -14.875 L 6.5 -14.875 C 6.019531 -14.875 5.664062 -14.765625 5.4375 -14.546875 C 5.21875 -14.328125 5.109375 -13.988281 5.109375 -13.53125 L 5.109375 -7.65625 L 5.15625 -7.65625 L 8.359375 -12.15625 C 8.679688 -12.601562 8.90625 -12.953125 9.03125 -13.203125 C 9.15625 -13.460938 9.21875 -13.71875 9.21875 -13.96875 C 9.21875 -14.28125 9.101562 -14.503906 8.875 -14.640625 C 8.644531 -14.773438 8.285156 -14.851562 7.796875 -14.875 L 7.796875 -15.265625 L 12.5625 -15.265625 L 12.5625 -14.875 C 12.007812 -14.8125 11.484375 -14.59375 10.984375 -14.21875 C 10.492188 -13.84375 9.984375 -13.289062 9.453125 -12.5625 L 7.5 -9.890625 L 11.359375 -2.21875 L 11.59375 -1.703125 C 11.832031 -1.191406 12.035156 -0.847656 12.203125 -0.671875 C 12.378906 -0.503906 12.675781 -0.414062 13.09375 -0.40625 L 13.09375 0 L 7.5 0 L 7.5 -0.40625 C 7.832031 -0.40625 8.085938 -0.445312 8.265625 -0.53125 C 8.441406 -0.613281 8.53125 -0.757812 8.53125 -0.96875 C 8.53125 -1.207031 8.453125 -1.488281 8.296875 -1.8125 C 8.140625 -2.144531 8.046875 -2.335938 8.015625 -2.390625 L 5.546875 -7.234375 L 5.109375 -6.609375 L 5.109375 -1.859375 C 5.109375 -1.316406 5.21875 -0.9375 5.4375 -0.71875 C 5.664062 -0.507812 6.007812 -0.40625 6.46875 -0.40625 L 6.46875 0 L 0.6875 0 L 0.6875 -0.40625 C 1.164062 -0.40625 1.503906 -0.507812 1.703125 -0.71875 C 1.910156 -0.925781 2.015625 -1.257812 2.015625 -1.71875 L 2.015625 -13.53125 C 2.015625 -14 1.910156 -14.335938 1.703125 -14.546875 C 1.492188 -14.765625 1.15625 -14.875 0.6875 -14.875 L 0.6875 -15.265625 L 6.625 -15.265625 Z M 6.625 -14.875 "/></g></g></g><g fill="#ffffff" fill-opacity="1"><g transform="translate(329.510397, 354.481618)"><g><path d="M 10.609375 -10.90625 L 10.203125 -10.90625 C 10.097656 -11.914062 9.828125 -12.679688 9.390625 -13.203125 C 8.960938 -13.734375 8.453125 -14.070312 7.859375 -14.21875 C 7.273438 -14.363281 6.570312 -14.4375 5.75 -14.4375 L 4.96875 -14.4375 L 4.96875 -8.171875 C 5.882812 -8.203125 6.550781 -8.507812 6.96875 -9.09375 C 7.382812 -9.6875 7.59375 -10.550781 7.59375 -11.6875 L 8 -11.6875 L 8 -3.921875 L 7.59375 -3.921875 C 7.59375 -5.035156 7.382812 -5.878906 6.96875 -6.453125 C 6.550781 -7.035156 5.882812 -7.332031 4.96875 -7.34375 L 4.96875 -2.5 C 4.96875 -2.007812 5.007812 -1.644531 5.09375 -1.40625 C 5.175781 -1.164062 5.3125 -1.007812 5.5 -0.9375 C 5.6875 -0.863281 5.957031 -0.828125 6.3125 -0.828125 C 7.28125 -0.828125 8.070312 -0.953125 8.6875 -1.203125 C 9.300781 -1.460938 9.804688 -1.867188 10.203125 -2.421875 C 10.597656 -2.972656 10.957031 -3.734375 11.28125 -4.703125 L 11.6875 -4.703125 L 10.953125 0 L 0.296875 0 L 0.296875 -0.40625 L 0.515625 -0.40625 C 0.960938 -0.40625 1.300781 -0.507812 1.53125 -0.71875 C 1.757812 -0.925781 1.875 -1.3125 1.875 -1.875 L 1.875 -13.390625 C 1.875 -13.953125 1.757812 -14.335938 1.53125 -14.546875 C 1.3125 -14.765625 0.941406 -14.875 0.421875 -14.875 L 0.296875 -14.875 L 0.296875 -15.265625 L 10.609375 -15.265625 Z M 10.609375 -10.90625 "/></g></g></g><path stroke-linecap="round" transform="matrix(0, 0.75, -0.75, 0, 61.888227, 173.408895)" fill="none" stroke-linejoin="miter" d="M 2.001682 2.002011 L 183.897527 2.002011 " stroke="#ff0000" stroke-width="4" stroke-opacity="1" stroke-miterlimit="4"/><path stroke-linecap="round" transform="matrix(0, 0.75, -0.75, 0, 317.873684, 173.408895)" fill="none" stroke-linejoin="miter" d="M 2.001682 1.998245 L 183.897527 1.998245 " stroke="#ff0000" stroke-width="4" stroke-opacity="1" stroke-miterlimit="4"/></svg>