<svg xmlns="http://www.w3.org/2000/svg" xmlns:xlink="http://www.w3.org/1999/xlink" width="500" zoomAndPan="magnify" viewBox="0 0 375 374.999991" height="500" preserveAspectRatio="xMidYMid meet" version="1.0"><defs><clipPath id="2c253a0142"><path d="M 56.308594 2.511719 L 318.667969 2.511719 L 318.667969 372.238281 L 56.308594 372.238281 Z M 56.308594 2.511719 " clip-rule="nonzero"/></clipPath></defs><g clip-path="url(#2c253a0142)"><path fill="#ff0000" d="M 73.496094 114.402344 C 98.574219 113.105469 120.1875 120.863281 138.546875 137.941406 C 142.066406 134.253906 145.105469 130.324219 147.625 125.945312 C 125.066406 114.3125 110.210938 96.453125 103.011719 72.230469 C 93.785156 79.335938 76.480469 104.007812 73.496094 114.402344 Z M 67.042969 155.609375 C 78.664062 159.808594 93.539062 160.652344 107.089844 156.851562 C 115.820312 154.398438 123.785156 150.472656 130.925781 144.828125 C 130.652344 144.476562 130.578125 144.34375 130.46875 144.25 C 114.597656 129.804688 95.917969 123.238281 74.523438 124.464844 C 69.535156 124.746094 69.316406 124.859375 68.75 129.832031 C 67.976562 136.617188 67.566406 143.445312 67.0625 150.261719 C 66.933594 151.988281 67.042969 153.734375 67.042969 155.609375 Z M 241.339844 143.851562 C 243.90625 145.386719 246.261719 146.941406 248.746094 148.253906 C 261.53125 155.027344 275.152344 157.421875 289.492188 155.695312 C 295.28125 154.996094 300.882812 153.457031 306.316406 151.316406 C 307.421875 150.882812 307.855469 150.316406 307.753906 149.058594 C 307.433594 144.992188 307.496094 140.886719 306.957031 136.863281 C 306.371094 132.480469 305.273438 128.164062 304.410156 123.816406 C 304.1875 122.667969 303.632812 122.0625 302.347656 122.085938 C 301.117188 122.101562 299.886719 121.824219 298.65625 121.765625 C 282.085938 120.972656 266.820312 125.011719 252.980469 134.214844 C 248.855469 136.953125 245.023438 140.0625 241.339844 143.851562 Z M 299.429688 111.695312 C 296.941406 102.726562 276.84375 76.355469 266.988281 69.078125 C 264.125 81.105469 258.945312 91.976562 251.390625 101.699219 C 243.792969 111.476562 234.433594 119.167969 223.390625 125.019531 C 226.34375 129.605469 229.675781 133.605469 233.550781 137.285156 C 251.808594 119.179688 273.785156 110.699219 299.429688 111.695312 Z M 218.5 116.152344 C 219.386719 115.703125 220.105469 115.382812 220.777344 114.988281 C 240.882812 103.269531 253.382812 86.109375 257.976562 63.21875 C 258.335938 61.429688 257.90625 60.386719 256.574219 59.332031 C 252.289062 55.957031 248.117188 52.433594 243.800781 49.09375 C 239.894531 46.078125 235.859375 43.226562 231.730469 40.191406 C 221.910156 50.410156 215.765625 62.304688 213.371094 76.046875 C 210.960938 89.859375 212.671875 103.210938 218.5 116.152344 Z M 152.242188 116.933594 C 158.367188 101.402344 159.074219 85.890625 154.148438 70.195312 C 150.804688 59.53125 141.640625 45.085938 137.089844 42.929688 C 128.539062 49.109375 120.34375 55.746094 112.476562 62.800781 C 111.683594 63.515625 111.480469 64.171875 111.714844 65.265625 C 114.414062 77.75 119.925781 88.816406 128.257812 98.480469 C 134.894531 106.183594 142.800781 112.257812 152.242188 116.933594 Z M 66.082031 271.796875 C 75.113281 274.300781 91.605469 274.03125 105.574219 268.734375 C 120.867188 262.929688 133.007812 253.199219 142.101562 239.660156 C 141.898438 239.410156 141.828125 239.273438 141.71875 239.195312 C 141.238281 238.875 140.746094 238.5625 140.246094 238.261719 C 131.277344 232.839844 121.601562 229.554688 111.140625 228.605469 C 95.371094 227.167969 80.855469 230.800781 67.492188 239.25 C 66.164062 240.085938 65.695312 241.042969 65.722656 242.601562 C 65.871094 251.839844 65.914062 261.085938 66 270.328125 C 66.003906 270.828125 66.050781 271.328125 66.082031 271.796875 Z M 308.824219 269.175781 C 308.898438 268.828125 308.976562 268.621094 308.980469 268.410156 C 309.0625 257.792969 309.113281 247.171875 309.257812 236.550781 C 309.28125 235.136719 308.480469 234.65625 307.515625 234.121094 C 299.035156 229.382812 290.003906 226.429688 280.304688 225.550781 C 263.738281 224.054688 248.605469 228.023438 234.871094 237.382812 C 234.296875 237.773438 233.769531 238.234375 233.238281 238.648438 C 249.902344 263.199219 280.585938 275.164062 308.824219 269.175781 Z M 179.261719 320.957031 C 173.367188 338.796875 162.292969 352.675781 146.742188 363.152344 C 153.515625 363.316406 160.128906 363.328125 166.746094 363.3125 C 171.464844 363.296875 176.1875 363.238281 180.914062 363.199219 C 184.125 363.199219 187.335938 363.203125 190.550781 363.203125 C 191.277344 363.242188 192 363.320312 192.722656 363.320312 C 204.5 363.324219 216.28125 363.320312 228.058594 363.316406 C 231.011719 363.316406 233.96875 363.316406 236.921875 363.316406 C 218.109375 352.386719 205.042969 336.9375 198.625 316.078125 C 201.320312 313.3125 204.019531 310.546875 206.714844 307.777344 C 206.96875 308.671875 207.238281 309.558594 207.480469 310.453125 C 213.382812 332.097656 226.671875 347.425781 247.089844 356.578125 C 251.84375 358.714844 256.828125 360.167969 262.042969 360.9375 C 259.867188 339.34375 243.160156 311.570312 212.394531 301.21875 C 212.503906 298.417969 211.425781 296.085938 209.710938 293.925781 C 208.523438 292.429688 207.570312 290.753906 206.511719 289.15625 C 206.648438 289.207031 206.785156 289.265625 206.925781 289.296875 C 239.683594 296.605469 264.75 322.242188 271.460938 355.320312 C 271.90625 357.503906 272.25 359.710938 272.628906 361.832031 C 272.9375 361.910156 273.078125 361.976562 273.214844 361.976562 C 285.03125 362.113281 296.09375 359.257812 306.492188 353.6875 C 307.367188 353.214844 307.722656 352.621094 307.734375 351.628906 C 307.777344 348.207031 307.921875 344.789062 307.976562 341.367188 C 308.285156 321.570312 308.582031 301.769531 308.882812 281.96875 C 308.894531 281.183594 308.882812 280.402344 308.882812 279.671875 C 274.355469 284.148438 246.585938 272.695312 225.269531 245.371094 C 213.667969 257.378906 206.996094 271.539062 205.597656 288.136719 C 204.195312 287.480469 203.617188 286.328125 203.621094 284.828125 C 203.640625 275.929688 203.667969 267.023438 203.691406 258.125 C 205.214844 255.523438 206.742188 252.925781 208.378906 250.132812 C 206.722656 250.570312 205.21875 250.96875 203.710938 251.363281 C 203.703125 247.894531 203.703125 244.425781 203.699219 240.960938 C 209.003906 239.339844 213.910156 236.910156 218.53125 233.757812 C 213.613281 223.699219 210.742188 213.203125 209.972656 202.140625 C 213.320312 202.136719 216.667969 202.136719 220.015625 202.136719 C 220.730469 210.789062 222.800781 219.082031 226.570312 227.152344 C 232.410156 221.269531 236.746094 214.722656 239.59375 207.203125 C 240.617188 207.839844 241.730469 208.367188 242.636719 209.136719 C 244.097656 210.367188 245.710938 210.671875 247.511719 210.378906 C 248.085938 210.285156 248.644531 210.152344 249.210938 210.039062 C 247.714844 213.507812 246.214844 216.976562 244.609375 220.695312 C 266.628906 212.503906 288.066406 213.429688 309.148438 223.507812 C 309.148438 220.207031 309.179688 217.15625 309.140625 214.101562 C 309.042969 206.027344 308.914062 197.945312 308.800781 189.871094 C 308.75 186.640625 308.703125 183.414062 308.65625 180.1875 C 308.542969 173.984375 308.425781 167.777344 308.304688 161.34375 C 287.625 168.589844 267.578125 167.796875 247.609375 159.015625 C 247.792969 159.703125 247.863281 159.972656 247.933594 160.238281 C 245.226562 160.183594 242.957031 161.214844 240.910156 162.933594 C 240.273438 163.46875 239.441406 163.765625 238.695312 164.175781 C 237.195312 160.648438 235.363281 157.3125 232.914062 153.996094 C 229.445312 159.058594 226.714844 164.191406 224.664062 169.699219 C 221.128906 169.699219 217.597656 169.699219 214.066406 169.699219 C 216.707031 161.132812 220.96875 153.375 226.160156 146.070312 C 221.820312 141.84375 217.132812 138.503906 211.878906 135.945312 C 211.988281 135.535156 212.050781 135.101562 212.210938 134.710938 C 213.046875 132.703125 212.71875 130.914062 211.242188 129.335938 C 210.554688 128.601562 209.824219 127.910156 209.125 127.183594 C 207.394531 125.390625 205.675781 123.582031 203.953125 121.78125 C 205.675781 121.269531 207.394531 120.761719 209.273438 120.203125 C 202.859375 105.667969 200.851562 90.714844 203.339844 75.25 C 205.832031 59.773438 212.546875 46.265625 223.132812 34.601562 C 222.625 34.207031 222.257812 33.863281 221.835938 33.605469 C 214.308594 29.042969 206.804688 24.4375 199.226562 19.953125 C 196.417969 18.289062 193.445312 16.898438 190.550781 15.382812 C 186.089844 12.554688 186.089844 12.550781 181.574219 14.972656 C 181.332031 15.097656 181.132812 15.300781 180.910156 15.472656 C 180.066406 15.886719 179.183594 16.234375 178.378906 16.71875 C 169.464844 22.078125 160.550781 27.4375 151.660156 32.839844 C 149.695312 34.035156 147.828125 35.398438 145.765625 36.789062 C 156.363281 48.171875 163.207031 61.273438 166.03125 76.367188 C 168.863281 91.511719 167.292969 106.277344 161.542969 120.753906 C 163.9375 121.390625 166.105469 121.964844 168.269531 122.546875 C 167.851562 123.027344 167.460938 123.542969 167.003906 123.996094 C 165.160156 125.816406 163.253906 127.582031 161.449219 129.445312 C 160.007812 130.933594 159.746094 132.714844 160.539062 134.648438 C 160.726562 135.109375 160.851562 135.597656 161.003906 136.070312 C 155.574219 138.855469 150.660156 142.332031 146.402344 146.726562 C 151.871094 153.90625 156.21875 161.402344 159.121094 169.699219 C 155.519531 169.699219 151.917969 169.695312 148.316406 169.695312 C 146.175781 164.375 143.300781 159.484375 139.796875 154.699219 C 137.523438 157.886719 135.796875 161.097656 134.378906 164.488281 C 132.816406 163.472656 131.207031 162.523438 129.699219 161.433594 C 128.085938 160.257812 126.296875 160.109375 124.554688 160.667969 C 123.242188 161.089844 122.085938 162.023438 120.863281 162.726562 C 120.117188 162.992188 119.363281 163.238281 118.625 163.527344 C 104.660156 169.070312 90.28125 170.75 75.457031 168.09375 C 72.539062 167.574219 69.652344 166.894531 66.507812 166.246094 C 66.414062 171.390625 66.324219 176.449219 66.230469 181.511719 C 66.199219 184.734375 66.171875 187.957031 66.140625 191.179688 C 66.101562 191.539062 66.03125 191.898438 66.027344 192.257812 C 65.925781 203.753906 65.828125 215.246094 65.734375 226.738281 C 65.726562 227.21875 65.789062 227.699219 65.839844 228.515625 C 75.75 222.992188 86.09375 219.695312 97.144531 218.617188 C 108.214844 217.539062 119 218.882812 129.488281 222.203125 C 127.660156 218.183594 125.875 214.253906 124.085938 210.324219 C 127.101562 210.972656 129.589844 210.03125 131.714844 207.867188 C 132.152344 207.429688 132.777344 207.175781 133.3125 206.839844 C 135.390625 211.636719 137.726562 216.296875 140.882812 220.503906 C 143.003906 223.332031 145.285156 226.003906 148.113281 228.449219 C 151.882812 219.925781 153.78125 211.199219 154.25 202.136719 C 157.59375 202.136719 160.9375 202.136719 164.28125 202.140625 C 163.792969 213.554688 161.117188 224.453125 156.355469 234.761719 C 159.902344 237.210938 164.886719 239.550781 169.109375 240.796875 C 169.066406 243.195312 169.011719 245.589844 168.996094 247.984375 C 168.976562 250.445312 168.976562 252.898438 168.996094 255.359375 C 169.007812 256.300781 169.144531 257.242188 169.148438 258.183594 C 169.164062 262.398438 169.171875 266.617188 169.144531 270.835938 C 169.136719 271.539062 168.941406 272.238281 168.832031 272.941406 C 164.890625 262.328125 158.667969 253.292969 150.203125 245.632812 C 140.792969 259.445312 128.671875 269.699219 113.5625 276.3125 C 98.414062 282.9375 82.59375 284.738281 66.09375 282.300781 C 66.09375 283.28125 66.085938 283.921875 66.09375 284.570312 C 66.496094 307.125 66.910156 329.679688 67.265625 352.234375 C 67.289062 353.585938 67.804688 354.324219 68.910156 354.984375 C 73.730469 357.859375 78.78125 360.230469 84.132812 361.921875 C 86.632812 362.710938 89.148438 363.390625 91.816406 363.339844 C 95.453125 363.273438 99.09375 363.324219 102.730469 363.308594 C 103.289062 363.304688 103.84375 363.21875 104.425781 363.167969 C 105.261719 356.144531 106.632812 349.382812 109.132812 342.910156 C 119.386719 316.351562 138.175781 298.910156 165.355469 290.484375 C 164.527344 291.726562 163.757812 293.011719 162.855469 294.199219 C 160.9375 296.710938 159.75 299.359375 160.921875 302.570312 C 160.726562 302.667969 160.535156 302.78125 160.335938 302.867188 C 140.40625 311.390625 126.503906 325.75 118.691406 345.972656 C 116.566406 351.472656 115.242188 357.183594 114.570312 363.179688 C 117.273438 363.460938 119.886719 363.507812 122.40625 362.746094 C 147.726562 355.085938 164.035156 338.578125 171.097656 313.03125 C 171.300781 313.101562 171.5625 313.109375 171.695312 313.246094 C 174.226562 315.808594 176.742188 318.382812 179.261719 320.957031 Z M 318.664062 244.066406 C 318.503906 258.992188 318.480469 273.914062 318.25 288.839844 C 317.835938 315.769531 317.308594 342.695312 316.820312 369.625 C 316.804688 370.542969 316.707031 371.453125 316.640625 372.464844 C 315.503906 372.464844 314.632812 372.464844 313.765625 372.464844 C 269.136719 372.464844 224.511719 372.464844 179.886719 372.464844 C 140.5 372.464844 101.113281 372.464844 61.730469 372.464844 C 58.945312 372.464844 58.324219 371.898438 58.089844 369.132812 C 58.054688 368.699219 58.058594 368.261719 58.046875 367.824219 C 58 364.621094 57.96875 361.417969 57.90625 358.21875 C 57.628906 343.882812 57.253906 329.542969 57.085938 315.207031 C 56.765625 287.765625 56.457031 260.324219 56.339844 232.882812 C 56.207031 201.722656 56.464844 170.570312 58.09375 139.445312 C 58.589844 129.980469 60.496094 120.847656 63.972656 112.035156 C 68.828125 99.726562 75.933594 88.769531 84.257812 78.566406 C 95.078125 65.296875 107.597656 53.78125 120.988281 43.1875 C 134.9375 32.148438 149.667969 22.238281 165.0625 13.332031 C 171.042969 9.875 177.191406 6.707031 183.246094 3.371094 C 185.46875 2.148438 187.519531 2.175781 189.53125 3.804688 C 190.144531 4.304688 190.875 4.667969 191.574219 5.054688 C 198.261719 8.742188 205.042969 12.28125 211.632812 16.132812 C 231.476562 27.738281 250.207031 40.910156 267.394531 56.214844 C 279.007812 66.558594 289.632812 77.8125 298.46875 90.667969 C 305.109375 100.324219 310.441406 110.613281 313.753906 121.90625 C 316.148438 130.082031 316.90625 138.480469 317.167969 146.929688 C 317.691406 163.878906 318.199219 180.832031 318.488281 197.789062 C 318.714844 211.472656 318.601562 225.160156 318.648438 238.847656 C 318.652344 239.898438 318.671875 243.457031 318.664062 244.066406 " fill-opacity="1" fill-rule="evenodd"/></g><path fill="#ffffff" d="M 102.183594 84.273438 C 100.230469 83.527344 97.996094 84.058594 96.660156 85.71875 C 95.476562 87.1875 94.394531 88.738281 93.292969 90.269531 C 90.667969 93.929688 88.042969 97.585938 85.449219 101.261719 C 84.539062 102.558594 84.101562 103.984375 84.636719 105.582031 C 85.246094 107.402344 86.507812 108.542969 88.347656 108.890625 C 90.308594 109.265625 91.925781 108.5 93.089844 106.894531 C 96.800781 101.789062 100.511719 96.675781 104.160156 91.523438 C 104.726562 90.722656 104.96875 89.691406 105.195312 89.152344 C 105.207031 86.824219 103.921875 84.933594 102.183594 84.273438 Z M 228.542969 49.140625 C 227.742188 51.007812 228.085938 53.085938 229.800781 54.484375 C 235.5 59.109375 241.261719 63.652344 247.039062 68.175781 C 248.085938 68.992188 249.375 69.382812 250.746094 69.027344 C 252.65625 68.535156 253.949219 67.394531 254.417969 65.421875 C 254.914062 63.335938 254.148438 61.699219 252.546875 60.425781 C 247.148438 56.121094 241.753906 51.820312 236.300781 47.582031 C 235.367188 46.851562 234.183594 46.4375 233.117188 45.875 C 231.046875 46.136719 229.332031 47.292969 228.542969 49.140625 Z M 294.097656 331.933594 C 294.097656 332.585938 294.066406 333.246094 294.132812 333.894531 C 294.394531 336.472656 296.472656 338.375 298.941406 338.34375 C 301.332031 338.3125 303.335938 336.46875 303.628906 333.996094 C 303.691406 333.492188 303.671875 332.980469 303.671875 332.46875 C 303.675781 318.796875 303.675781 305.117188 303.671875 291.4375 C 303.671875 290.859375 303.707031 290.261719 303.597656 289.699219 C 303.226562 287.757812 302.132812 286.398438 300.21875 285.785156 C 298.445312 285.21875 296.890625 285.730469 295.589844 286.945312 C 294.398438 288.050781 294.078125 289.519531 294.085938 291.121094 C 294.109375 298.03125 294.097656 304.941406 294.097656 311.851562 C 294.097656 318.546875 294.097656 325.242188 294.097656 331.933594 Z M 79.507812 317.871094 C 79.394531 314.117188 75.757812 311.953125 72.550781 313.636719 C 70.691406 314.613281 69.96875 316.277344 69.976562 318.332031 C 69.988281 322.835938 69.976562 327.339844 69.976562 331.84375 C 69.976562 335.113281 69.964844 338.382812 69.988281 341.652344 C 70 343.710938 70.847656 345.320312 72.773438 346.199219 C 75.996094 347.664062 79.402344 345.519531 79.507812 341.84375 C 79.625 337.851562 79.535156 333.855469 79.535156 329.855469 C 79.535156 325.863281 79.628906 321.863281 79.507812 317.871094 Z M 246.085938 170.96875 C 243.125 173.089844 240.410156 175.039062 237.6875 176.980469 C 235.511719 178.527344 233.214844 179.453125 230.40625 179.394531 C 223.058594 179.25 215.699219 179.347656 208.347656 179.347656 C 205.289062 179.34375 202.230469 179.394531 199.175781 179.328125 C 194.6875 179.226562 192.308594 176.796875 192.304688 172.402344 C 192.296875 163.664062 192.300781 154.929688 192.300781 146.191406 C 192.300781 143.15625 193.128906 140.488281 195.488281 138.382812 C 197.007812 137.027344 198.390625 135.519531 199.804688 134.054688 C 200.1875 133.660156 200.46875 133.171875 200.925781 132.554688 C 196.03125 127.945312 191.246094 123.441406 186.371094 118.847656 C 181.710938 123.253906 177.28125 127.453125 172.835938 131.640625 C 171.914062 132.503906 172.113281 133.242188 172.925781 134.039062 C 174.382812 135.46875 175.738281 137.003906 177.257812 138.355469 C 179.617188 140.460938 180.46875 143.121094 180.46875 146.15625 C 180.472656 154.964844 180.476562 163.773438 180.46875 172.582031 C 180.464844 176.230469 179.265625 177.910156 175.765625 178.949219 C 174.738281 179.253906 173.617188 179.328125 172.542969 179.328125 C 162.566406 179.359375 152.59375 179.261719 142.621094 179.398438 C 139.667969 179.4375 137.234375 178.546875 134.9375 176.875 C 132.242188 174.914062 129.511719 173.003906 126.675781 170.984375 C 122.375 176.097656 118.175781 181.089844 113.855469 186.21875 C 118.066406 190.816406 122.164062 195.292969 126.367188 199.886719 C 128.417969 198.246094 130.234375 196.804688 132.027344 195.339844 C 134.359375 193.4375 136.910156 192.410156 140.027344 192.445312 C 150.144531 192.558594 160.265625 192.472656 170.382812 192.503906 C 171.828125 192.507812 173.28125 192.683594 174.722656 192.847656 C 176.117188 193.003906 177.304688 193.75 177.867188 194.953125 C 178.394531 196.085938 178.6875 197.441406 178.6875 198.695312 C 178.730469 227.378906 178.710938 256.0625 178.738281 284.746094 C 178.742188 287.863281 177.871094 290.585938 175.886719 293 C 174.28125 294.953125 172.785156 296.992188 171.417969 298.769531 C 176.574219 303.917969 181.550781 308.882812 186.878906 314.195312 C 191.761719 309.386719 196.808594 304.414062 201.878906 299.421875 C 199.945312 296.921875 198.480469 294.925781 196.90625 293.027344 C 194.859375 290.554688 194.023438 287.757812 194.027344 284.558594 C 194.070312 266.652344 194.050781 248.746094 194.050781 230.832031 C 194.050781 219.988281 194.039062 209.140625 194.054688 198.292969 C 194.058594 194.863281 195.453125 193.230469 198.875 192.707031 C 200.089844 192.523438 201.339844 192.5 202.574219 192.496094 C 212.328125 192.480469 222.085938 192.617188 231.835938 192.425781 C 235.59375 192.351562 238.644531 193.453125 241.398438 195.863281 C 242.960938 197.230469 244.652344 198.457031 246.4375 199.871094 C 250.671875 195.234375 254.730469 190.796875 258.910156 186.21875 C 254.609375 181.105469 250.417969 176.117188 246.085938 170.96875 Z M 220.015625 202.136719 C 216.667969 202.136719 213.320312 202.136719 209.972656 202.140625 C 207.902344 202.039062 205.832031 201.980469 203.625 202.179688 C 203.625 203.261719 203.625 204.046875 203.625 204.839844 C 203.625 211.367188 203.613281 217.894531 203.625 224.421875 C 203.636719 229.9375 203.671875 235.449219 203.699219 240.960938 C 203.703125 244.425781 203.703125 247.894531 203.710938 251.363281 C 203.703125 253.617188 203.695312 255.871094 203.691406 258.125 C 203.667969 267.023438 203.640625 275.929688 203.621094 284.828125 C 203.617188 286.328125 204.195312 287.480469 205.597656 288.136719 C 205.898438 288.476562 206.207031 288.816406 206.511719 289.15625 C 207.570312 290.753906 208.523438 292.429688 209.710938 293.925781 C 211.425781 296.085938 212.503906 298.417969 212.394531 301.21875 C 211.332031 302.496094 210.289062 303.789062 209.207031 305.046875 C 208.402344 305.976562 207.550781 306.867188 206.714844 307.777344 C 204.019531 310.546875 201.320312 313.3125 198.625 316.078125 C 198.003906 316.554688 197.335938 316.980469 196.769531 317.519531 C 195.085938 319.121094 193.535156 320.871094 191.75 322.34375 C 190.851562 323.082031 190.503906 323.765625 190.503906 324.871094 C 190.542969 337.648438 190.542969 350.425781 190.550781 363.203125 C 187.335938 363.203125 184.125 363.199219 180.914062 363.199219 C 180.921875 350.125 180.914062 337.050781 180.960938 323.980469 C 180.96875 322.5625 180.417969 321.632812 179.261719 320.957031 C 176.742188 318.382812 174.226562 315.808594 171.695312 313.246094 C 171.5625 313.109375 171.300781 313.101562 171.097656 313.03125 C 170.925781 312.71875 170.816406 312.347656 170.570312 312.105469 C 167.367188 308.917969 164.140625 305.746094 160.921875 302.570312 C 159.75 299.359375 160.9375 296.710938 162.855469 294.199219 C 163.757812 293.011719 164.527344 291.726562 165.355469 290.484375 C 166.964844 289.113281 168.875 287.613281 169.007812 285.550781 C 169.273438 281.371094 168.921875 277.144531 168.832031 272.941406 C 168.941406 272.238281 169.136719 271.539062 169.144531 270.835938 C 169.171875 266.617188 169.164062 262.398438 169.148438 258.183594 C 169.144531 257.242188 169.007812 256.300781 168.996094 255.359375 C 168.976562 252.898438 168.976562 250.445312 168.996094 247.984375 C 169.011719 245.589844 169.066406 243.195312 169.109375 240.796875 C 169.121094 228.441406 169.132812 216.082031 169.136719 203.722656 C 169.136719 203.242188 169.007812 202.757812 168.917969 202.140625 C 167.304688 202.140625 165.792969 202.140625 164.28125 202.140625 C 160.9375 202.136719 157.59375 202.136719 154.25 202.136719 C 149.53125 202.113281 144.8125 202.078125 140.089844 202.089844 C 139.539062 202.089844 138.863281 202.1875 138.453125 202.511719 C 136.695312 203.898438 135.015625 205.390625 133.3125 206.839844 C 132.777344 207.175781 132.152344 207.429688 131.714844 207.867188 C 129.589844 210.03125 127.101562 210.972656 124.085938 210.324219 C 123.121094 209.6875 121.980469 209.214844 121.214844 208.390625 C 116.316406 203.128906 111.476562 197.804688 106.675781 192.449219 C 105.875 191.558594 105.070312 191.121094 103.875 191.125 C 91.292969 191.167969 78.71875 191.167969 66.140625 191.179688 C 66.171875 187.957031 66.199219 184.734375 66.230469 181.511719 C 78.726562 181.527344 91.222656 181.53125 103.71875 181.589844 C 104.964844 181.601562 105.753906 181.078125 106.488281 180.199219 C 109.898438 176.140625 113.347656 172.113281 116.734375 168.039062 C 118.167969 166.316406 119.488281 164.5 120.863281 162.726562 C 122.085938 162.023438 123.242188 161.089844 124.554688 160.667969 C 126.296875 160.109375 128.085938 160.257812 129.699219 161.433594 C 131.207031 162.523438 132.816406 163.472656 134.378906 164.488281 C 136.511719 166.105469 138.621094 167.753906 140.804688 169.300781 C 141.292969 169.644531 142.03125 169.734375 142.660156 169.746094 C 144.546875 169.78125 146.433594 169.71875 148.316406 169.695312 C 151.917969 169.695312 155.519531 169.699219 159.121094 169.699219 C 161.082031 169.722656 163.042969 169.78125 165.003906 169.761719 C 166.925781 169.738281 168.871094 169.925781 170.757812 169.617188 C 170.824219 169.058594 170.886719 168.773438 170.886719 168.488281 C 170.894531 161.292969 170.878906 154.097656 170.910156 146.902344 C 170.914062 145.871094 170.558594 145.117188 169.835938 144.410156 C 167.394531 142.023438 165.003906 139.585938 162.566406 137.195312 C 162.113281 136.75 161.527344 136.441406 161.003906 136.070312 C 160.851562 135.597656 160.726562 135.109375 160.539062 134.648438 C 159.746094 132.714844 160.007812 130.933594 161.449219 129.445312 C 163.253906 127.582031 165.160156 125.816406 167.003906 123.996094 C 167.460938 123.542969 167.851562 123.027344 168.269531 122.546875 C 168.988281 121.941406 169.730469 121.363281 170.417969 120.730469 C 173.46875 117.917969 176.460938 115.054688 179.558594 112.300781 C 180.785156 111.207031 181.628906 110.175781 181.003906 108.410156 C 180.773438 107.757812 180.941406 106.96875 180.941406 106.238281 C 180.941406 95.910156 180.949219 85.582031 180.941406 75.253906 C 180.933594 55.328125 180.921875 35.398438 180.910156 15.472656 C 181.132812 15.300781 181.332031 15.097656 181.574219 14.972656 C 186.089844 12.550781 186.089844 12.554688 190.550781 15.382812 C 190.542969 15.890625 190.519531 16.398438 190.519531 16.910156 C 190.515625 47.308594 190.515625 77.710938 190.480469 108.113281 C 190.480469 109.242188 190.839844 110.027344 191.640625 110.769531 C 195.011719 113.871094 198.332031 117.027344 201.703125 120.128906 C 202.386719 120.753906 203.199219 121.234375 203.953125 121.78125 C 205.675781 123.582031 207.394531 125.390625 209.125 127.183594 C 209.824219 127.910156 210.554688 128.601562 211.242188 129.335938 C 212.71875 130.914062 213.046875 132.703125 212.210938 134.710938 C 212.050781 135.101562 211.988281 135.535156 211.878906 135.945312 C 211.308594 136.371094 210.671875 136.738281 210.171875 137.230469 C 207.835938 139.515625 205.574219 141.871094 203.207031 144.121094 C 202.234375 145.046875 201.839844 146.027344 201.851562 147.375 C 201.910156 154.121094 201.875 160.867188 201.882812 167.613281 C 201.886719 168.246094 201.972656 168.878906 202.03125 169.699219 C 206.132812 169.699219 210.097656 169.699219 214.066406 169.699219 C 217.597656 169.699219 221.128906 169.699219 224.664062 169.699219 C 226.191406 169.722656 227.71875 169.773438 229.246094 169.757812 C 230.035156 169.746094 231.007812 169.871094 231.578125 169.480469 C 234.015625 167.804688 236.335938 165.957031 238.695312 164.175781 C 239.441406 163.765625 240.273438 163.46875 240.910156 162.933594 C 242.957031 161.214844 245.226562 160.183594 247.933594 160.238281 C 249.996094 161.34375 251.753906 162.769531 253.25 164.609375 C 257.152344 169.402344 261.164062 174.097656 265.09375 178.867188 C 265.894531 179.835938 266.773438 180.304688 268.074219 180.28125 C 271.925781 180.207031 275.78125 180.261719 279.636719 180.253906 C 289.3125 180.234375 298.984375 180.210938 308.65625 180.1875 C 308.703125 183.414062 308.75 186.640625 308.800781 189.871094 C 297.097656 189.859375 285.390625 189.972656 273.691406 189.753906 C 270.082031 189.6875 267.121094 190.152344 265.207031 193.496094 C 265.136719 193.617188 265.007812 193.707031 264.910156 193.8125 C 260.683594 198.417969 256.484375 203.042969 252.21875 207.609375 C 251.347656 208.539062 250.222656 209.234375 249.210938 210.039062 C 248.644531 210.152344 248.085938 210.285156 247.511719 210.378906 C 245.710938 210.671875 244.097656 210.367188 242.636719 209.136719 C 241.730469 208.367188 240.617188 207.839844 239.59375 207.203125 C 237.707031 205.558594 235.835938 203.886719 233.910156 202.28125 C 233.625 202.046875 233.074219 202.078125 232.644531 202.078125 C 228.433594 202.085938 224.222656 202.113281 220.015625 202.136719 " fill-opacity="1" fill-rule="evenodd"/></svg>