<svg width="825" height="1272" viewBox="0 0 825 1272" fill="none" xmlns="http://www.w3.org/2000/svg">
<path d="M327.686 806.93C322.106 798.804 317.602 790.836 314.892 782.019C311.743 771.773 315.265 761.119 324.48 755.719C387.127 719.012 429.298 663.537 465.011 602.296C501.903 539.031 527.624 470.866 552.06 402.115C563.081 371.106 574.761 340.211 594.732 313.406C595.423 312.479 595.726 311.262 596.803 308.853C590.512 310.421 586.784 313.78 583.167 317.265C562.062 337.604 549.119 363.268 537.293 389.402C516.933 434.398 497.768 479.936 477.37 524.914C458.569 566.369 436.082 605.85 410.452 643.501C409.143 645.425 408.304 647.999 405.322 648.47C402.486 646.191 404.896 644.031 405.788 642.21C443.838 564.494 471.967 482.976 498.745 400.911C507.841 373.033 518.651 345.785 536.534 322.063C548.155 306.647 561.725 293.847 581.659 289.98C588.444 288.664 595.386 288.419 601.417 291.475C612.596 297.139 624.599 300.76 635.796 306.249C645.297 310.906 651.212 318.135 650.025 329.499C649.727 332.352 650.296 334.883 652.038 337.241C667.373 357.993 675.052 382.157 682.471 406.375C688.642 426.519 695.793 446.269 704.5 465.449C705.359 467.342 706.367 469.355 707.837 470.755C728.456 490.391 734.141 515.703 733.55 542.557C733.041 565.694 726.729 587.705 714.009 607.448C711.54 611.28 708.865 615.04 705.854 618.452C689.581 636.888 676.017 637.02 658.93 619.002C641.751 600.888 631.619 578.79 623.321 555.671C622.811 554.252 622.342 552.818 620.596 551.494C621.159 558.7 621.662 565.911 622.303 573.111C622.977 580.694 623.518 588.302 624.577 595.835C630.131 635.339 635.046 674.904 639.203 714.593C647.342 792.317 650.701 870.233 649.281 948.303C648.467 993.077 647.149 1037.89 642.548 1082.52C641.685 1090.9 637.181 1095.16 629.866 1097.26C617.177 1100.91 604.445 1099.55 591.881 1096.62C582.987 1094.54 574.127 1092.16 565.471 1089.26C546.161 1082.79 526.489 1079.57 506.098 1080.92C502.922 1081.13 499.507 1082.43 494.992 1079.31C534.943 1034.18 561.679 982.004 577.374 924.288C592.909 867.165 600.13 809.042 595.535 749.723C589.275 789.878 580.955 829.483 568.274 868.2C543.599 943.535 499.608 1005.76 441.3 1058.53C419.151 1078.58 399.365 1101.18 375.598 1119.48C373.499 1121.1 371.838 1123.61 367.973 1123.13C364.804 1115.48 368.206 1107.74 369.109 1100.3C375.492 1047.66 380.575 994.923 383.106 941.956C383.331 937.241 384.658 933.947 389.055 931.65C443.18 903.366 477.357 856.936 504.079 804.037C541.301 730.35 559.977 650.911 575.436 570.529C588.143 504.455 596.761 437.587 613.841 372.366C616.978 360.386 620.742 348.57 624.711 334.985C611.923 352.989 604.946 371.803 598.659 390.871C581.177 443.891 570.276 498.709 554.78 552.282C537.044 613.599 517.122 674.066 486.837 730.549C464.627 771.968 438.6 810.46 400.087 838.905C392.91 844.206 385.152 848.375 376.811 851.438C364.983 855.781 356.229 853.902 352.995 842.489C348.68 827.261 336.177 819.214 327.686 806.93Z" fill="#7A191B"/>
<path d="M289.419 1046.5C271.908 1055.65 268.982 1073.24 266.521 1088.69C263.405 1108.26 256.604 1127.01 255.106 1146.87C254.296 1157.62 254.763 1168.15 256.023 1178.77C256.663 1184.16 259.907 1183.89 263.873 1183.58C300.392 1180.72 336.973 1179.95 373.574 1181.2C390.624 1181.78 407.686 1182.75 424.668 1184.34C433.159 1185.14 436.443 1180.98 437.761 1173.95C438.427 1170.4 438.389 1166.66 438.258 1163.02C437.721 1148.04 436.762 1147.21 422.132 1146.96C415.846 1146.85 409.349 1147.28 402.861 1141.7C423.058 1122.98 446.745 1112.17 471.592 1102.87C519.426 1084.96 566.254 1096.07 613.924 1106.37C610.328 1111.13 605.361 1111.25 600.758 1111.98C590.185 1113.65 579.514 1114.3 568.842 1113.65C562.555 1113.27 559.724 1115.92 557.661 1121.73C551.5 1139.09 549.297 1155.97 559.256 1172.84C562.757 1178.77 566.748 1183.93 572.591 1187.56C579.06 1191.59 585.769 1195.27 590.339 1201.72C592.704 1205.05 596.744 1205.15 600.216 1205.83C618.756 1209.46 637.403 1212.55 655.89 1216.42C662.734 1217.85 665.055 1216.02 665.903 1209.17C669.867 1177.13 673.568 1145.06 676.307 1112.89C679.743 1072.52 683.45 1032.17 686.604 991.772C689 961.089 691.147 930.373 692.643 899.634C695.874 833.258 698.721 766.862 701.481 700.464C702.165 684.013 702.232 667.518 701.961 651.053C701.837 643.526 703.525 637.628 709.357 632.457C716.836 625.826 720.83 616.264 727.327 607.631C731.361 614.718 730.276 621.297 729.725 627.363C727.158 655.658 728.086 684.054 727.215 712.378C725.491 768.452 723.214 824.507 720.521 880.524C717.45 944.422 712.842 1008.26 707.978 1072.05C704.251 1120.94 699.249 1169.73 694.389 1218.52C693.7 1225.44 697.468 1225.91 702.061 1227.1C738.083 1236.47 773.646 1247.3 808.237 1261.11C813.605 1263.26 819.75 1264.35 825 1271.22C813.636 1269.12 804.208 1267.42 794.796 1265.63C729.873 1253.27 664.688 1242.44 599.22 1233.49C557.582 1227.8 515.762 1223.53 473.882 1219.72C401.751 1213.15 329.504 1212.49 257.282 1215.02C173.389 1217.96 90.3912 1229.04 8.58888 1248.32C5.96061 1248.94 3.42392 1250.28 0 1248.79C1.46757 1244.4 5.70849 1243.88 8.90095 1242.34C46.4366 1224.22 85.9234 1211.78 126.519 1202.83C134.526 1201.06 137.808 1198.08 138.658 1189.29C140.751 1167.68 138.708 1146.77 132.521 1126.1C130.952 1120.86 128.687 1115.77 128.635 1110.16C128.479 1093.37 120.364 1079.19 113.79 1064.48C112.162 1060.84 109.11 1059.09 105.913 1057.23C82.8546 1043.78 70.1785 1023.8 68.5195 997.069C68.3026 993.574 67.2021 990.654 65.5323 987.659C50.8523 961.33 50.7865 934.827 64.9362 908.265C66.6686 905.013 68.0198 901.788 68.3601 897.984C70.9485 869.048 86.4222 848.721 111.524 835.466C119.081 831.475 126.491 828.103 132.136 821.11C135.841 816.52 141.476 813.329 146.62 810.108C150.618 807.604 152.481 804.277 153.511 799.909C154.87 794.152 153.098 791.554 147.072 792.688C138.052 794.385 129.399 793.276 121.295 789.044C112.317 784.355 111.627 777.572 119.529 771.138C128.958 763.461 140.053 759.173 151.828 756.795C156.56 755.839 160.034 753.915 163.278 750.218C184.99 725.48 222.97 725.661 244.674 750.577C247.682 754.03 250.904 755.819 255.32 756.779C266.387 759.186 277.146 762.577 286.152 769.951C295.96 777.982 294.727 785.072 282.875 790.144C273.548 794.135 264.019 794.109 254.516 791.54C252.054 802.593 259.073 815.357 270.593 820.847C302.594 836.098 318.225 861.939 320.977 896.661C321.801 907.052 328.446 915.864 330.04 926.268C333.291 947.493 331.307 967.564 319.26 985.946C317.268 988.986 315.106 991.994 314.886 995.866C313.736 1016.16 304.866 1032.63 289.419 1046.5ZM161.114 1121.56C160.939 1143.73 165.463 1165.1 172.118 1186.11C172.956 1188.75 173.77 1191.71 177.368 1191.34C180.386 1191.03 181.056 1188.22 181.443 1185.91C184.469 1167.89 187.634 1149.96 184.495 1131.49C182.565 1120.13 180.246 1108.54 182.648 1096.98C184.027 1090.35 183.257 1084.26 180.828 1078.23C177.379 1069.66 175.39 1060.77 174.773 1051.61C174.525 1047.93 173.343 1045.31 170.036 1043.43C140.078 1026.42 127.785 998.282 121.9 966.286C120.352 957.872 120.524 949.329 122.038 939.946C125.273 942.7 125.47 945.223 125.921 947.52C129.025 963.317 135.45 977.817 144.24 991.096C160.475 1015.62 182.289 1031.21 213.008 1030.85C220.687 1030.75 223.261 1034.08 222.72 1041.47C220.831 1067.27 210.593 1092.3 215.604 1118.75C215.87 1120.15 215.147 1121.74 214.922 1123.24C212.07 1142.32 211.009 1161.43 214.403 1180.56C214.854 1183.1 214.815 1186.59 218.727 1186.38C221.94 1186.2 221.615 1183.17 222.39 1180.9C232.568 1151.01 231.189 1119.07 238.953 1088.51C242.496 1074.57 245.21 1060.51 250.654 1047.02C252.854 1041.57 256.056 1037.95 261.081 1035.05C279.259 1024.59 289.097 1008.44 291.743 987.844C292.267 983.767 293.526 980.261 295.85 976.907C309.333 957.446 311.45 936.475 304.181 914.185C302.312 908.453 299.318 903.193 298.947 896.812C297.301 868.443 284.649 846.882 258.716 833.913C256.825 832.967 254.996 831.814 253.331 830.511C219.596 804.111 172.832 807.602 143.337 838.927C138.876 843.664 134.103 847.345 128.007 849.98C104.739 860.035 91.6331 877.804 89.4453 903.263C89.1255 906.984 88.0972 910.376 86.3232 913.663C74.3578 935.833 74.9645 957.977 86.6547 980.044C88.5057 983.538 90.6977 986.877 91.0306 990.99C93.4948 1021.43 111.182 1038.78 139.376 1046.99C142.772 1047.98 145.389 1049.46 147.058 1052.8C151.029 1060.74 154.975 1068.57 153.805 1077.95C153.157 1083.15 153.892 1088.38 156.228 1093.13C160.392 1101.59 161.673 1110.51 161.114 1121.56ZM491.892 1123.49C486.908 1127.3 477.738 1126.69 477.696 1135.69C477.63 1149.67 477.03 1163.7 480.991 1177.45C484.762 1190.54 486.669 1192.01 501.692 1190.02C499.165 1183.32 497.969 1176.5 500.265 1169.57C502.562 1162.64 505.055 1155.76 507.031 1148.74C509.88 1138.61 513.148 1128.46 510.767 1117.16C504.037 1117.62 498.625 1120.38 491.892 1123.49Z" fill="black"/>
<path d="M548.68 130.177C566.338 146.847 571.563 168.054 572.494 190.353C573.071 204.153 574.696 216.838 583.822 227.917C588.737 233.884 589.852 241.213 587.059 248.661C584.37 255.831 585.366 261.625 591.983 266.262C595.834 268.96 598.036 272.877 597.921 277.217C596.042 279.605 594.121 279.419 592.356 279.185C553.302 274.01 528.516 295.08 508.412 324.768C507.046 326.785 505.935 328.978 504.533 330.967C496.994 341.661 486.792 344.768 474.982 339.097C469.893 336.653 465.822 336.319 460.43 338.394C444.797 344.41 433.462 337.965 430.085 321.538C428.81 315.332 425.417 311.283 420.304 307.958C404.06 297.394 402.2 280.717 416.25 267.452C422.737 261.327 425.408 255.042 422.796 246.337C420.021 237.09 422.757 228.707 428.827 221.66C436.81 212.392 439.934 201.787 440.228 189.74C440.618 173.708 444.016 158.194 452.443 144.354C473.157 110.336 516.424 103.853 548.68 130.177Z" fill="black"/>
<path d="M671.234 48.464C682.639 18.297 703.666 1.32848 735.36 0.052986C770.821 -1.37411 800.422 26.1796 807.309 64.1538C812.597 93.3184 804.5 119.653 792.574 145.461C789.114 152.95 786.128 160.583 783.681 168.46C780.742 177.915 781.237 187.023 785.356 196.06C788.301 202.522 788.358 208.659 781.367 212.755C775.212 216.361 768.22 214.093 763.433 206.726C755.813 194.999 755.492 181.936 757.699 168.753C760.442 152.363 768.055 137.585 773.897 122.222C781.758 101.551 785.728 80.5672 777.527 58.9994C768.82 36.097 751.657 25.193 729.581 28.2523C711.132 30.8089 695.532 49.5857 693.776 71.4955C692.467 87.8439 694.609 103.666 700.728 118.992C710.223 142.777 719.862 166.641 722.216 192.421C724.237 214.552 725.67 236.775 726.294 258.987C727.999 319.628 730.914 380.248 730.277 440.934C730.197 448.54 732.054 452.418 740.082 454.155C751.509 456.628 756.371 463.493 756.018 475.306C755.646 487.73 759.908 500.132 756.012 512.553C754.225 518.251 753.511 524.43 747.951 529.149C744.585 524.394 745.149 519.035 744.216 514.294C740.534 495.573 732.713 479.213 719.643 465.114C711.02 455.811 705.173 444.797 704.846 431.599C704.552 419.713 704.09 407.826 704.031 395.938C703.727 334.952 700.798 274.051 697.862 213.159C696.53 185.544 689.404 159.16 678.347 133.715C666.514 106.486 661.783 78.3477 671.234 48.464Z" fill="black"/>
<path d="M354.834 470.805C356.58 496.309 362.38 520.388 365.244 544.885C369.221 578.898 369.411 612.934 366.721 647.06C365.067 668.039 362.439 688.86 358.482 709.507C357.426 715.017 357.447 722.703 350.519 723.52C343.764 724.317 341.913 716.873 339.36 711.922C335.444 704.324 335.894 695.882 336.02 687.686C336.127 680.776 333.77 675.768 328.673 670.935C311.3 654.463 296.228 636.141 286.536 613.924C283.942 607.979 282.082 602.004 283.829 595.333C301.114 529.319 315.003 462.394 336.453 397.5C341.423 382.465 347.046 367.604 354.413 353.494C363.7 335.705 379.735 326.32 398.151 318.804C362.689 363.442 350.882 414.49 354.834 470.805Z" fill="black"/>
<path d="M394.741 855.209C406.801 850.451 416.014 842.369 425.739 835.641C427.533 836.782 427.672 838.013 426.871 839.036C413.623 855.967 398.91 871.336 379.198 880.79C368.175 886.078 357.593 879.621 356.201 867.405C355.586 862.012 357.323 858.808 363.259 860.311C374.285 863.102 384.306 860.162 394.741 855.209Z" fill="black"/>
</svg>
