<svg xmlns="http://www.w3.org/2000/svg" xmlns:xlink="http://www.w3.org/1999/xlink" width="500" zoomAndPan="magnify" viewBox="0 0 375 374.999991" height="500" preserveAspectRatio="xMidYMid meet" version="1.0"><defs><clipPath id="653714a5b3"><path d="M 57.511719 4.203125 L 317.46875 4.203125 L 317.46875 370.769531 L 57.511719 370.769531 Z M 57.511719 4.203125 " clip-rule="nonzero"/></clipPath></defs><g clip-path="url(#653714a5b3)"><path fill="#000000" d="M 74.539062 115.070312 C 99.390625 113.785156 120.808594 121.472656 138.996094 138.390625 C 142.484375 134.738281 145.496094 130.84375 147.992188 126.503906 C 125.640625 114.980469 110.921875 97.285156 103.789062 73.285156 C 94.644531 80.324219 77.5 104.769531 74.539062 115.070312 Z M 68.144531 155.898438 C 79.664062 160.058594 94.402344 160.898438 107.828125 157.128906 C 116.480469 154.699219 124.371094 150.8125 131.445312 145.214844 C 131.175781 144.867188 131.101562 144.738281 130.992188 144.644531 C 115.265625 130.332031 96.761719 123.824219 75.558594 125.039062 C 70.617188 125.320312 70.398438 125.429688 69.835938 130.359375 C 69.070312 137.078125 68.664062 143.847656 68.167969 150.601562 C 68.039062 152.3125 68.144531 154.042969 68.144531 155.898438 Z M 240.847656 144.25 C 243.394531 145.769531 245.726562 147.308594 248.183594 148.613281 C 260.855469 155.324219 274.351562 157.695312 288.558594 155.984375 C 294.296875 155.289062 299.847656 153.765625 305.230469 151.644531 C 306.324219 151.214844 306.757812 150.652344 306.65625 149.40625 C 306.339844 145.378906 306.398438 141.3125 305.867188 137.324219 C 305.285156 132.980469 304.195312 128.707031 303.34375 124.398438 C 303.121094 123.257812 302.570312 122.660156 301.296875 122.683594 C 300.078125 122.699219 298.859375 122.425781 297.640625 122.363281 C 281.222656 121.578125 266.097656 125.578125 252.382812 134.699219 C 248.292969 137.414062 244.5 140.496094 240.847656 144.25 Z M 298.40625 112.386719 C 295.941406 103.5 276.027344 77.371094 266.261719 70.160156 C 263.425781 82.074219 258.292969 92.851562 250.808594 102.480469 C 243.277344 112.167969 234.007812 119.789062 223.0625 125.589844 C 225.988281 130.132812 229.292969 134.097656 233.128906 137.742188 C 251.21875 119.800781 272.996094 111.398438 298.40625 112.386719 Z M 218.21875 116.804688 C 219.097656 116.359375 219.808594 116.039062 220.476562 115.652344 C 240.394531 104.039062 252.78125 87.035156 257.335938 64.355469 C 257.691406 62.578125 257.261719 61.546875 255.945312 60.503906 C 251.699219 57.15625 247.5625 53.667969 243.285156 50.359375 C 239.417969 47.367188 235.417969 44.546875 231.328125 41.535156 C 221.597656 51.664062 215.511719 63.449219 213.136719 77.066406 C 210.75 90.753906 212.445312 103.980469 218.21875 116.804688 Z M 152.566406 117.578125 C 158.636719 102.1875 159.335938 86.820312 154.457031 71.265625 C 151.144531 60.699219 142.0625 46.390625 137.550781 44.25 C 129.082031 50.375 120.960938 56.949219 113.167969 63.941406 C 112.378906 64.648438 112.175781 65.300781 112.414062 66.382812 C 115.082031 78.753906 120.546875 89.71875 128.800781 99.292969 C 135.378906 106.925781 143.210938 112.941406 152.566406 117.578125 Z M 67.195312 271.023438 C 76.144531 273.503906 92.488281 273.234375 106.324219 267.988281 C 121.480469 262.234375 133.507812 252.597656 142.519531 239.179688 C 142.320312 238.933594 142.25 238.796875 142.140625 238.722656 C 141.664062 238.402344 141.175781 238.09375 140.683594 237.796875 C 131.792969 232.421875 122.207031 229.167969 111.84375 228.226562 C 96.21875 226.804688 81.835938 230.402344 68.59375 238.773438 C 67.273438 239.605469 66.8125 240.550781 66.839844 242.09375 C 66.984375 251.25 67.027344 260.410156 67.113281 269.566406 C 67.117188 270.0625 67.167969 270.558594 67.195312 271.023438 Z M 307.71875 268.425781 C 307.789062 268.082031 307.867188 267.875 307.867188 267.667969 C 307.953125 257.144531 308 246.625 308.148438 236.097656 C 308.167969 234.695312 307.375 234.222656 306.417969 233.691406 C 298.015625 228.996094 289.066406 226.070312 279.457031 225.199219 C 263.039062 223.71875 248.046875 227.652344 234.4375 236.921875 C 233.871094 237.3125 233.347656 237.765625 232.820312 238.179688 C 249.332031 262.503906 279.738281 274.359375 307.71875 268.425781 Z M 179.339844 319.730469 C 173.5 337.410156 162.527344 351.160156 147.117188 361.542969 C 153.828125 361.703125 160.382812 361.714844 166.9375 361.699219 C 171.613281 361.683594 176.292969 361.628906 180.976562 361.585938 C 184.160156 361.585938 187.339844 361.589844 190.527344 361.589844 C 191.246094 361.628906 191.960938 361.707031 192.679688 361.707031 C 204.347656 361.710938 216.019531 361.707031 227.6875 361.703125 C 230.617188 361.703125 233.542969 361.703125 236.472656 361.703125 C 217.832031 350.875 204.886719 335.566406 198.523438 314.898438 C 201.195312 312.15625 203.871094 309.417969 206.542969 306.671875 C 206.792969 307.558594 207.058594 308.4375 207.296875 309.324219 C 213.148438 330.769531 226.316406 345.957031 246.546875 355.03125 C 251.253906 357.144531 256.195312 358.582031 261.363281 359.347656 C 259.207031 337.953125 242.652344 310.429688 212.167969 300.175781 C 212.277344 297.402344 211.207031 295.089844 209.507812 292.949219 C 208.332031 291.46875 207.386719 289.804688 206.339844 288.222656 C 206.476562 288.273438 206.609375 288.328125 206.75 288.359375 C 239.207031 295.605469 264.042969 321.007812 270.695312 353.78125 C 271.136719 355.945312 271.476562 358.128906 271.851562 360.234375 C 272.15625 360.3125 272.296875 360.375 272.433594 360.378906 C 284.140625 360.511719 295.101562 357.683594 305.402344 352.164062 C 306.273438 351.695312 306.625 351.105469 306.636719 350.121094 C 306.675781 346.734375 306.820312 343.347656 306.875 339.957031 C 307.179688 320.339844 307.476562 300.71875 307.773438 281.101562 C 307.785156 280.324219 307.773438 279.550781 307.773438 278.824219 C 273.5625 283.257812 246.046875 271.910156 224.925781 244.835938 C 213.429688 256.734375 206.820312 270.769531 205.433594 287.214844 C 204.042969 286.5625 203.472656 285.421875 203.476562 283.9375 C 203.496094 275.117188 203.519531 266.292969 203.542969 257.472656 C 205.054688 254.898438 206.566406 252.324219 208.191406 249.558594 C 206.546875 249.992188 205.058594 250.382812 203.5625 250.777344 C 203.558594 247.339844 203.554688 243.902344 203.550781 240.46875 C 208.808594 238.863281 213.671875 236.453125 218.25 233.332031 C 213.375 223.367188 210.53125 212.964844 209.769531 202.003906 C 213.085938 202 216.402344 202 219.71875 202 C 220.429688 210.574219 222.480469 218.789062 226.214844 226.785156 C 232.003906 220.957031 236.296875 214.472656 239.121094 207.019531 C 240.132812 207.652344 241.238281 208.171875 242.136719 208.933594 C 243.582031 210.15625 245.179688 210.457031 246.964844 210.167969 C 247.53125 210.074219 248.089844 209.945312 248.648438 209.828125 C 247.164062 213.269531 245.679688 216.703125 244.085938 220.386719 C 265.90625 212.269531 287.144531 213.1875 308.035156 223.175781 C 308.035156 219.90625 308.066406 216.882812 308.027344 213.855469 C 307.933594 205.855469 307.804688 197.847656 307.691406 189.847656 C 307.640625 186.648438 307.597656 183.449219 307.550781 180.253906 C 307.4375 174.105469 307.320312 167.953125 307.199219 161.578125 C 286.710938 168.761719 266.847656 167.972656 247.0625 159.273438 C 247.242188 159.957031 247.3125 160.222656 247.382812 160.484375 C 244.699219 160.433594 242.449219 161.453125 240.421875 163.15625 C 239.792969 163.6875 238.96875 163.980469 238.226562 164.386719 C 236.742188 160.890625 234.925781 157.585938 232.5 154.300781 C 229.066406 159.316406 226.355469 164.402344 224.328125 169.859375 C 220.824219 169.859375 217.324219 169.859375 213.824219 169.859375 C 216.441406 161.371094 220.664062 153.6875 225.808594 146.445312 C 221.507812 142.261719 216.863281 138.949219 211.660156 136.417969 C 211.765625 136.007812 211.828125 135.578125 211.988281 135.191406 C 212.816406 133.199219 212.488281 131.429688 211.023438 129.863281 C 210.34375 129.140625 209.621094 128.453125 208.929688 127.734375 C 207.214844 125.953125 205.511719 124.167969 203.804688 122.382812 C 205.511719 121.875 207.214844 121.367188 209.074219 120.816406 C 202.722656 106.414062 200.730469 91.597656 203.195312 76.273438 C 205.664062 60.941406 212.320312 47.558594 222.808594 36 C 222.304688 35.609375 221.941406 35.269531 221.523438 35.011719 C 214.066406 30.488281 206.628906 25.929688 199.121094 21.484375 C 196.339844 19.835938 193.394531 18.457031 190.527344 16.957031 C 186.105469 14.152344 186.101562 14.148438 181.632812 16.546875 C 181.390625 16.675781 181.191406 16.875 180.972656 17.042969 C 180.136719 17.453125 179.261719 17.800781 178.464844 18.28125 C 169.628906 23.589844 160.800781 28.898438 151.992188 34.253906 C 150.042969 35.441406 148.191406 36.789062 146.148438 38.164062 C 156.648438 49.445312 163.429688 62.429688 166.230469 77.382812 C 169.035156 92.390625 167.480469 107.019531 161.78125 121.363281 C 164.15625 121.992188 166.304688 122.5625 168.445312 123.136719 C 168.03125 123.617188 167.648438 124.125 167.195312 124.574219 C 165.367188 126.378906 163.476562 128.128906 161.691406 129.972656 C 160.261719 131.449219 160.003906 133.214844 160.789062 135.128906 C 160.976562 135.589844 161.097656 136.070312 161.25 136.539062 C 155.871094 139.300781 151 142.742188 146.78125 147.097656 C 152.199219 154.210938 156.507812 161.640625 159.382812 169.859375 C 155.8125 169.859375 152.246094 169.855469 148.675781 169.855469 C 146.558594 164.582031 143.707031 159.738281 140.234375 154.996094 C 137.980469 158.152344 136.269531 161.339844 134.867188 164.699219 C 133.320312 163.691406 131.726562 162.75 130.230469 161.667969 C 128.632812 160.503906 126.859375 160.359375 125.132812 160.910156 C 123.832031 161.328125 122.6875 162.253906 121.476562 162.953125 C 120.734375 163.214844 119.988281 163.457031 119.257812 163.746094 C 105.417969 169.238281 91.171875 170.898438 76.484375 168.269531 C 73.59375 167.753906 70.734375 167.082031 67.617188 166.4375 C 67.523438 171.535156 67.4375 176.546875 67.34375 181.5625 C 67.3125 184.753906 67.285156 187.949219 67.253906 191.140625 C 67.214844 191.5 67.144531 191.855469 67.144531 192.214844 C 67.039062 203.601562 66.941406 214.988281 66.851562 226.375 C 66.84375 226.851562 66.90625 227.332031 66.957031 228.140625 C 76.777344 222.664062 87.023438 219.398438 97.976562 218.332031 C 108.945312 217.261719 119.628906 218.59375 130.023438 221.882812 C 128.207031 217.902344 126.441406 214.007812 124.667969 210.113281 C 127.65625 210.753906 130.121094 209.820312 132.230469 207.679688 C 132.660156 207.242188 133.277344 206.996094 133.808594 206.660156 C 135.871094 211.414062 138.183594 216.03125 141.3125 220.199219 C 143.414062 223 145.675781 225.648438 148.476562 228.074219 C 152.210938 219.625 154.089844 210.980469 154.558594 202 C 157.871094 202 161.183594 202 164.496094 202.003906 C 164.011719 213.3125 161.359375 224.113281 156.644531 234.328125 C 160.15625 236.753906 165.097656 239.074219 169.277344 240.304688 C 169.238281 242.683594 169.183594 245.054688 169.167969 247.429688 C 169.144531 249.863281 169.144531 252.296875 169.167969 254.734375 C 169.179688 255.667969 169.316406 256.601562 169.320312 257.535156 C 169.335938 261.710938 169.339844 265.890625 169.3125 270.070312 C 169.308594 270.765625 169.113281 271.457031 169.003906 272.15625 C 165.097656 261.640625 158.933594 252.6875 150.542969 245.097656 C 141.222656 258.785156 129.214844 268.945312 114.242188 275.496094 C 99.234375 282.0625 83.554688 283.84375 67.210938 281.429688 C 67.210938 282.402344 67.199219 283.039062 67.210938 283.675781 C 67.605469 306.027344 68.015625 328.375 68.371094 350.722656 C 68.394531 352.0625 68.902344 352.792969 69.996094 353.445312 C 74.777344 356.296875 79.777344 358.648438 85.082031 360.324219 C 87.554688 361.101562 90.050781 361.777344 92.691406 361.726562 C 96.296875 361.660156 99.902344 361.710938 103.511719 361.695312 C 104.0625 361.691406 104.613281 361.605469 105.191406 361.554688 C 106.019531 354.597656 107.375 347.898438 109.851562 341.484375 C 120.011719 315.167969 138.628906 297.886719 165.5625 289.539062 C 164.738281 290.769531 163.980469 292.042969 163.085938 293.21875 C 161.179688 295.710938 160.007812 298.332031 161.167969 301.515625 C 160.976562 301.613281 160.785156 301.722656 160.585938 301.804688 C 140.839844 310.253906 127.066406 324.480469 119.324219 344.519531 C 117.214844 349.96875 115.90625 355.625 115.238281 361.570312 C 117.917969 361.847656 120.507812 361.894531 123.007812 361.136719 C 148.09375 353.550781 164.25 337.191406 171.25 311.878906 C 171.449219 311.945312 171.710938 311.957031 171.84375 312.089844 C 174.351562 314.628906 176.84375 317.179688 179.339844 319.730469 Z M 317.464844 243.546875 C 317.308594 258.335938 317.28125 273.121094 317.054688 287.90625 C 316.644531 314.59375 316.121094 341.269531 315.640625 367.957031 C 315.621094 368.863281 315.527344 369.765625 315.460938 370.769531 C 314.335938 370.769531 313.472656 370.769531 312.609375 370.769531 C 268.390625 370.769531 224.175781 370.769531 179.957031 370.769531 C 140.929688 370.769531 101.90625 370.769531 62.882812 370.769531 C 60.125 370.769531 59.507812 370.207031 59.277344 367.46875 C 59.242188 367.039062 59.242188 366.601562 59.234375 366.171875 C 59.191406 362.996094 59.15625 359.824219 59.09375 356.65625 C 58.820312 342.449219 58.445312 328.242188 58.28125 314.035156 C 57.960938 286.84375 57.660156 259.65625 57.542969 232.464844 C 57.410156 201.59375 57.667969 170.722656 59.28125 139.882812 C 59.769531 130.503906 61.660156 121.457031 65.105469 112.722656 C 69.917969 100.527344 76.957031 89.671875 85.203125 79.558594 C 95.925781 66.414062 108.332031 55 121.597656 44.503906 C 135.421875 33.566406 150.015625 23.75 165.269531 14.925781 C 171.195312 11.5 177.289062 8.359375 183.289062 5.054688 C 185.488281 3.84375 187.523438 3.871094 189.515625 5.484375 C 190.121094 5.980469 190.847656 6.339844 191.539062 6.722656 C 198.167969 10.378906 204.882812 13.882812 211.414062 17.699219 C 231.074219 29.195312 249.636719 42.25 266.664062 57.414062 C 278.171875 67.664062 288.699219 78.8125 297.457031 91.550781 C 304.035156 101.121094 309.316406 111.3125 312.597656 122.503906 C 314.972656 130.605469 315.726562 138.925781 315.984375 147.300781 C 316.5 164.09375 317.007812 180.890625 317.289062 197.695312 C 317.515625 211.25 317.40625 224.8125 317.449219 238.375 C 317.453125 239.417969 317.472656 242.941406 317.464844 243.546875 " fill-opacity="1" fill-rule="evenodd"/></g><path fill="#ff0000" d="M 102.96875 85.214844 C 101.03125 84.476562 98.816406 85.003906 97.492188 86.648438 C 96.320312 88.105469 95.25 89.640625 94.15625 91.160156 C 91.558594 94.78125 88.957031 98.40625 86.386719 102.046875 C 85.484375 103.332031 85.046875 104.746094 85.578125 106.328125 C 86.183594 108.132812 87.4375 109.265625 89.257812 109.609375 C 91.203125 109.980469 92.800781 109.21875 93.957031 107.628906 C 97.632812 102.570312 101.3125 97.503906 104.925781 92.398438 C 105.488281 91.605469 105.726562 90.585938 105.949219 90.050781 C 105.964844 87.746094 104.6875 85.871094 102.96875 85.214844 Z M 228.167969 50.402344 C 227.375 52.257812 227.714844 54.3125 229.414062 55.699219 C 235.0625 60.285156 240.769531 64.785156 246.496094 69.265625 C 247.53125 70.074219 248.808594 70.460938 250.167969 70.109375 C 252.0625 69.621094 253.34375 68.492188 253.808594 66.535156 C 254.300781 64.472656 253.539062 62.847656 251.953125 61.585938 C 246.605469 57.324219 241.257812 53.058594 235.859375 48.859375 C 234.929688 48.136719 233.757812 47.726562 232.703125 47.171875 C 230.648438 47.429688 228.949219 48.574219 228.167969 50.402344 Z M 293.121094 330.609375 C 293.121094 331.257812 293.09375 331.910156 293.160156 332.550781 C 293.417969 335.105469 295.476562 336.992188 297.921875 336.960938 C 300.289062 336.929688 302.277344 335.101562 302.570312 332.652344 C 302.628906 332.152344 302.609375 331.648438 302.609375 331.140625 C 302.613281 317.589844 302.613281 304.035156 302.609375 290.484375 C 302.609375 289.910156 302.644531 289.316406 302.539062 288.757812 C 302.171875 286.835938 301.085938 285.492188 299.1875 284.882812 C 297.429688 284.320312 295.890625 284.828125 294.605469 286.03125 C 293.421875 287.128906 293.105469 288.582031 293.109375 290.167969 C 293.136719 297.015625 293.121094 303.863281 293.121094 310.710938 C 293.121094 317.34375 293.121094 323.976562 293.121094 330.609375 Z M 80.5 316.675781 C 80.386719 312.957031 76.78125 310.8125 73.605469 312.480469 C 71.761719 313.445312 71.046875 315.097656 71.054688 317.132812 C 71.0625 321.59375 71.054688 326.058594 71.054688 330.519531 C 71.054688 333.757812 71.042969 336.996094 71.0625 340.238281 C 71.078125 342.277344 71.917969 343.875 73.824219 344.742188 C 77.019531 346.195312 80.394531 344.070312 80.5 340.429688 C 80.613281 336.472656 80.527344 332.511719 80.527344 328.550781 C 80.527344 324.59375 80.621094 320.632812 80.5 316.675781 Z M 245.550781 171.117188 C 242.617188 173.21875 239.929688 175.152344 237.230469 177.074219 C 235.074219 178.609375 232.796875 179.523438 230.015625 179.46875 C 222.734375 179.320312 215.445312 179.417969 208.160156 179.417969 C 205.128906 179.414062 202.097656 179.46875 199.074219 179.402344 C 194.625 179.300781 192.265625 176.890625 192.261719 172.535156 C 192.257812 163.882812 192.257812 155.226562 192.257812 146.566406 C 192.257812 143.558594 193.078125 140.917969 195.417969 138.832031 C 196.921875 137.488281 198.292969 135.992188 199.695312 134.542969 C 200.074219 134.152344 200.355469 133.667969 200.804688 133.054688 C 195.953125 128.488281 191.214844 124.027344 186.382812 119.472656 C 181.765625 123.839844 177.375 128 172.972656 132.148438 C 172.058594 133.007812 172.257812 133.738281 173.0625 134.527344 C 174.507812 135.941406 175.847656 137.464844 177.351562 138.804688 C 179.691406 140.886719 180.535156 143.523438 180.535156 146.53125 C 180.539062 155.257812 180.542969 163.988281 180.535156 172.714844 C 180.53125 176.332031 179.339844 177.996094 175.875 179.027344 C 174.859375 179.328125 173.746094 179.398438 172.679688 179.402344 C 162.796875 179.429688 152.914062 179.335938 143.035156 179.46875 C 140.109375 179.511719 137.699219 178.625 135.417969 176.96875 C 132.75 175.027344 130.046875 173.136719 127.238281 171.132812 C 122.972656 176.199219 118.8125 181.144531 114.535156 186.230469 C 118.703125 190.785156 122.761719 195.21875 126.929688 199.773438 C 128.960938 198.144531 130.757812 196.714844 132.539062 195.265625 C 134.847656 193.378906 137.375 192.363281 140.464844 192.398438 C 150.488281 192.511719 160.515625 192.425781 170.542969 192.453125 C 171.976562 192.460938 173.414062 192.636719 174.839844 192.796875 C 176.222656 192.949219 177.402344 193.691406 177.957031 194.882812 C 178.480469 196.003906 178.769531 197.347656 178.769531 198.589844 C 178.8125 227.011719 178.792969 255.429688 178.820312 283.851562 C 178.824219 286.941406 177.960938 289.640625 175.996094 292.03125 C 174.40625 293.96875 172.921875 295.988281 171.566406 297.746094 C 176.675781 302.851562 181.609375 307.769531 186.886719 313.035156 C 191.722656 308.265625 196.726562 303.34375 201.75 298.394531 C 199.832031 295.917969 198.382812 293.941406 196.824219 292.058594 C 194.792969 289.609375 193.964844 286.835938 193.972656 283.667969 C 194.011719 265.925781 193.992188 248.183594 193.992188 230.433594 C 193.992188 219.6875 193.980469 208.941406 193.996094 198.191406 C 194.003906 194.792969 195.382812 193.175781 198.773438 192.65625 C 199.976562 192.472656 201.214844 192.453125 202.4375 192.449219 C 212.101562 192.429688 221.769531 192.566406 231.433594 192.375 C 235.15625 192.304688 238.175781 193.398438 240.90625 195.785156 C 242.457031 197.140625 244.128906 198.355469 245.898438 199.753906 C 250.097656 195.160156 254.117188 190.761719 258.257812 186.230469 C 254 181.160156 249.84375 176.21875 245.550781 171.117188 Z M 219.71875 202 C 216.402344 202 213.085938 202 209.769531 202.003906 C 207.71875 201.902344 205.664062 201.847656 203.476562 202.042969 C 203.476562 203.113281 203.476562 203.894531 203.476562 204.679688 C 203.476562 211.144531 203.46875 217.613281 203.480469 224.082031 C 203.492188 229.546875 203.527344 235.007812 203.550781 240.46875 C 203.554688 243.902344 203.558594 247.339844 203.5625 250.777344 C 203.554688 253.007812 203.550781 255.242188 203.542969 257.472656 C 203.519531 266.292969 203.496094 275.117188 203.476562 283.9375 C 203.472656 285.421875 204.042969 286.5625 205.433594 287.214844 C 205.734375 287.550781 206.039062 287.886719 206.339844 288.222656 C 207.386719 289.804688 208.332031 291.46875 209.507812 292.949219 C 211.207031 295.089844 212.277344 297.402344 212.167969 300.175781 C 211.117188 301.441406 210.082031 302.722656 209.011719 303.96875 C 208.214844 304.890625 207.367188 305.773438 206.542969 306.671875 C 203.871094 309.417969 201.195312 312.15625 198.523438 314.898438 C 197.910156 315.371094 197.246094 315.792969 196.6875 316.328125 C 195.019531 317.910156 193.484375 319.648438 191.710938 321.105469 C 190.824219 321.839844 190.476562 322.515625 190.480469 323.613281 C 190.515625 336.273438 190.515625 348.929688 190.527344 361.589844 C 187.339844 361.589844 184.160156 361.585938 180.976562 361.585938 C 180.984375 348.636719 180.976562 335.679688 181.023438 322.726562 C 181.03125 321.324219 180.484375 320.402344 179.339844 319.730469 C 176.84375 317.179688 174.351562 314.628906 171.84375 312.089844 C 171.710938 311.957031 171.449219 311.945312 171.25 311.878906 C 171.078125 311.570312 170.96875 311.203125 170.730469 310.960938 C 167.554688 307.800781 164.355469 304.660156 161.167969 301.515625 C 160.007812 298.332031 161.179688 295.710938 163.085938 293.21875 C 163.980469 292.042969 164.738281 290.769531 165.5625 289.539062 C 167.15625 288.179688 169.046875 286.691406 169.179688 284.652344 C 169.441406 280.507812 169.09375 276.324219 169.003906 272.15625 C 169.113281 271.457031 169.308594 270.765625 169.3125 270.070312 C 169.339844 265.890625 169.335938 261.710938 169.320312 257.535156 C 169.316406 256.601562 169.179688 255.667969 169.167969 254.734375 C 169.144531 252.296875 169.144531 249.863281 169.167969 247.429688 C 169.183594 245.054688 169.238281 242.683594 169.277344 240.304688 C 169.289062 228.0625 169.304688 215.816406 169.308594 203.574219 C 169.308594 203.09375 169.179688 202.613281 169.089844 202.003906 C 167.488281 202.003906 165.992188 202.003906 164.496094 202.003906 C 161.183594 202 157.871094 202 154.558594 202 C 149.878906 201.980469 145.203125 201.941406 140.527344 201.953125 C 139.980469 201.953125 139.308594 202.050781 138.90625 202.371094 C 137.164062 203.746094 135.5 205.222656 133.808594 206.660156 C 133.277344 206.996094 132.660156 207.242188 132.230469 207.679688 C 130.121094 209.820312 127.65625 210.753906 124.667969 210.113281 C 123.710938 209.484375 122.582031 209.011719 121.824219 208.199219 C 116.96875 202.980469 112.175781 197.707031 107.417969 192.398438 C 106.625 191.515625 105.828125 191.085938 104.640625 191.089844 C 92.175781 191.128906 79.71875 191.128906 67.253906 191.140625 C 67.285156 187.949219 67.3125 184.753906 67.34375 181.5625 C 79.726562 181.578125 92.105469 181.582031 104.488281 181.644531 C 105.722656 181.652344 106.503906 181.132812 107.234375 180.265625 C 110.609375 176.242188 114.027344 172.253906 117.386719 168.214844 C 118.804688 166.507812 120.113281 164.710938 121.476562 162.953125 C 122.6875 162.253906 123.832031 161.328125 125.132812 160.910156 C 126.859375 160.359375 128.632812 160.503906 130.230469 161.667969 C 131.726562 162.75 133.320312 163.691406 134.867188 164.699219 C 136.980469 166.296875 139.070312 167.929688 141.234375 169.464844 C 141.714844 169.804688 142.449219 169.894531 143.074219 169.90625 C 144.941406 169.941406 146.808594 169.878906 148.675781 169.855469 C 152.246094 169.855469 155.8125 169.859375 159.382812 169.859375 C 161.324219 169.882812 163.269531 169.941406 165.210938 169.921875 C 167.117188 169.898438 169.042969 170.082031 170.910156 169.78125 C 170.976562 169.226562 171.039062 168.941406 171.039062 168.660156 C 171.046875 161.53125 171.03125 154.398438 171.0625 147.269531 C 171.070312 146.25 170.71875 145.503906 170 144.804688 C 167.582031 142.4375 165.210938 140.023438 162.792969 137.652344 C 162.347656 137.214844 161.769531 136.90625 161.25 136.539062 C 161.097656 136.070312 160.976562 135.589844 160.789062 135.128906 C 160.003906 133.214844 160.261719 131.449219 161.691406 129.972656 C 163.476562 128.128906 165.367188 126.378906 167.195312 124.574219 C 167.648438 124.125 168.03125 123.617188 168.445312 123.136719 C 169.15625 122.539062 169.894531 121.964844 170.578125 121.335938 C 173.597656 118.554688 176.5625 115.71875 179.632812 112.984375 C 180.847656 111.902344 181.683594 110.882812 181.066406 109.128906 C 180.835938 108.484375 181.003906 107.703125 181.003906 106.980469 C 181.003906 96.746094 181.007812 86.511719 181.003906 76.28125 C 180.996094 56.535156 180.984375 36.789062 180.972656 17.042969 C 181.191406 16.875 181.390625 16.675781 181.632812 16.546875 C 186.101562 14.148438 186.105469 14.152344 190.527344 16.957031 C 190.515625 17.460938 190.492188 17.964844 190.492188 18.46875 C 190.488281 48.589844 190.492188 78.714844 190.457031 108.839844 C 190.457031 109.957031 190.808594 110.734375 191.605469 111.46875 C 194.945312 114.542969 198.234375 117.671875 201.574219 120.746094 C 202.25 121.363281 203.058594 121.839844 203.804688 122.382812 C 205.511719 124.167969 207.214844 125.953125 208.929688 127.734375 C 209.621094 128.453125 210.34375 129.140625 211.023438 129.863281 C 212.488281 131.429688 212.816406 133.199219 211.988281 135.191406 C 211.828125 135.578125 211.765625 136.007812 211.660156 136.417969 C 211.089844 136.839844 210.464844 137.199219 209.964844 137.6875 C 207.652344 139.953125 205.410156 142.285156 203.066406 144.515625 C 202.101562 145.433594 201.710938 146.40625 201.722656 147.738281 C 201.777344 154.421875 201.742188 161.109375 201.753906 167.792969 C 201.753906 168.421875 201.839844 169.046875 201.902344 169.859375 C 205.964844 169.859375 209.894531 169.859375 213.824219 169.859375 C 217.324219 169.859375 220.824219 169.859375 224.328125 169.859375 C 225.835938 169.882812 227.351562 169.933594 228.863281 169.917969 C 229.648438 169.90625 230.609375 170.03125 231.175781 169.640625 C 233.59375 167.984375 235.890625 166.152344 238.226562 164.386719 C 238.96875 163.980469 239.792969 163.6875 240.421875 163.15625 C 242.449219 161.453125 244.699219 160.433594 247.382812 160.484375 C 249.425781 161.578125 251.167969 162.996094 252.652344 164.816406 C 256.515625 169.566406 260.488281 174.21875 264.386719 178.941406 C 265.179688 179.902344 266.046875 180.367188 267.335938 180.34375 C 271.15625 180.269531 274.976562 180.324219 278.796875 180.320312 C 288.382812 180.296875 297.964844 180.277344 307.550781 180.253906 C 307.597656 183.449219 307.640625 186.648438 307.691406 189.847656 C 296.09375 189.835938 284.496094 189.949219 272.902344 189.730469 C 269.328125 189.664062 266.394531 190.125 264.496094 193.4375 C 264.429688 193.558594 264.300781 193.648438 264.203125 193.753906 C 260.015625 198.316406 255.855469 202.898438 251.628906 207.421875 C 250.765625 208.34375 249.648438 209.03125 248.648438 209.828125 C 248.089844 209.945312 247.53125 210.074219 246.964844 210.167969 C 245.179688 210.457031 243.582031 210.15625 242.136719 208.933594 C 241.238281 208.171875 240.132812 207.652344 239.121094 207.019531 C 237.246094 205.390625 235.394531 203.734375 233.488281 202.144531 C 233.203125 201.910156 232.660156 201.941406 232.234375 201.941406 C 228.0625 201.949219 223.886719 201.976562 219.71875 202 " fill-opacity="1" fill-rule="evenodd"/></svg>